<svg xmlns="http://www.w3.org/2000/svg" width="1200" height="675" viewBox="0 0 1200 675" role="img" aria-labelledby="title desc">
  <title id="title">404 Radio Studio</title>
  <desc id="desc">Mockup premium de una radio web estática para GitHub Pages.</desc>
  <defs>
    <linearGradient id="bg" x1="0" y1="0" x2="1" y2="1"><stop offset="0" stop-color="#020617"></stop><stop offset="0.52" stop-color="#071426"></stop><stop offset="1" stop-color="#0b1020"></stop></linearGradient>
    <linearGradient id="dial" x1="0" y1="0" x2="1" y2="1"><stop offset="0" stop-color="#22d3ee"></stop><stop offset="1" stop-color="#f59e0b"></stop></linearGradient>
    <filter id="glow"><feGaussianBlur stdDeviation="8" result="b"></feGaussianBlur><feMerge><feMergeNode in="b"></feMergeNode><feMergeNode in="SourceGraphic"></feMergeNode></feMerge></filter>
  </defs>
  <rect width="1200" height="675" fill="url(#bg)"></rect>
  <circle cx="990" cy="110" r="230" fill="#22d3ee" opacity=".08"></circle>
  <circle cx="155" cy="585" r="250" fill="#f59e0b" opacity=".08"></circle>
  <rect x="82" y="76" width="1036" height="523" rx="34" fill="#07111f" stroke="#1f3a5f" stroke-width="2"></rect>
  <rect x="125" y="118" width="950" height="58" rx="18" fill="#0c1a2e"></rect>
  <text x="156" y="154" fill="#dbeafe" font-family="Inter, Arial, sans-serif" font-size="24" font-weight="800">404 Radio Studio</text>
  <text x="860" y="154" fill="#7dd3fc" font-family="Inter, Arial, sans-serif" font-size="15" font-weight="700">STATIC · LOCAL · GITHUB PAGES</text>
  <g transform="translate(135 220)">
    <rect width="390" height="300" rx="26" fill="#09182b" stroke="#224466"></rect>
    <circle cx="195" cy="142" r="86" fill="#030712" stroke="#1f3a5f" stroke-width="10"></circle>
    <circle cx="195" cy="142" r="52" fill="url(#dial)" opacity=".92" filter="url(#glow)"></circle>
    <circle cx="195" cy="142" r="18" fill="#e2e8f0"></circle>
    <path d="M112 248h166" stroke="#7dd3fc" stroke-width="10" stroke-linecap="round" opacity=".7"></path>
    <path d="M112 248h92" stroke="#f59e0b" stroke-width="10" stroke-linecap="round"></path>
  </g>
  <g transform="translate(580 230)">
    <text x="0" y="0" fill="#f8fafc" font-family="Inter, Arial, sans-serif" font-size="38" font-weight="900">Radio web premium</text>
    <text x="0" y="45" fill="#9fb6d2" font-family="Inter, Arial, sans-serif" font-size="21">Sin backend, sin Node, sin base de datos.</text>
    <rect x="0" y="82" width="470" height="78" rx="18" fill="#0b1c31" stroke="#1d3d62"></rect>
    <text x="28" y="130" fill="#7dd3fc" font-family="Consolas, monospace" font-size="22">▶ Streaming / playlists / presets</text>
    <rect x="0" y="186" width="132" height="52" rx="18" fill="#22d3ee" opacity=".82"></rect>
    <rect x="150" y="186" width="132" height="52" rx="18" fill="#f59e0b" opacity=".82"></rect>
    <rect x="300" y="186" width="170" height="52" rx="18" fill="#334155" opacity=".95"></rect>
    <text x="35" y="219" fill="#04111e" font-family="Inter, Arial" font-size="16" font-weight="900">PLAY</text>
    <text x="185" y="219" fill="#1f1300" font-family="Inter, Arial" font-size="16" font-weight="900">SKINS</text>
    <text x="325" y="219" fill="#e2e8f0" font-family="Inter, Arial" font-size="16" font-weight="900">OFFLINE UI</text>
  </g>
  <path d="M125 566h950" stroke="#1f3a5f"></path>
  <text x="156" y="583" fill="#64748b" font-family="Inter, Arial" font-size="14">Portal Apps 404 · Estudio audiovisual</text>
</svg>