<svg xmlns="http://www.w3.org/2000/svg" viewBox="0 0 1280 720" role="img" aria-labelledby="title desc">
  <title id="title">AEGIS 404</title>
  <desc id="desc">Suite local de análisis de seguridad web y auditoría defensiva</desc>
  <defs>
    <linearGradient id="bg" x1="0" x2="1" y1="0" y2="1">
      <stop stop-color="#030712"></stop>
      <stop offset="0.48" stop-color="#081323"></stop>
      <stop offset="1" stop-color="#111827"></stop>
    </linearGradient>
    <linearGradient id="accent" x1="0" x2="1">
      <stop stop-color="#22d3ee"></stop>
      <stop offset="0.55" stop-color="#38bdf8"></stop>
      <stop offset="1" stop-color="#22c55e"></stop>
    </linearGradient>
    <filter id="glow" x="-40%" y="-40%" width="180%" height="180%">
      <feGaussianBlur stdDeviation="12" result="blur"></feGaussianBlur>
      <feMerge><feMergeNode in="blur"></feMergeNode><feMergeNode in="SourceGraphic"></feMergeNode></feMerge>
    </filter>
    
  </defs>
  <rect width="1280" height="720" fill="url(#bg)"></rect>
  <circle cx="1060" cy="100" r="260" fill="#22d3ee" opacity=".09" filter="url(#glow)"></circle>
  <circle cx="1020" cy="620" r="240" fill="#22c55e" opacity=".065" filter="url(#glow)"></circle>
  <rect x="28" y="28" width="1224" height="664" rx="34" fill="#050b14" stroke="#2a3a4d" stroke-width="2"></rect>
  <text x="64" y="94" class="font meta">UNIVERSO 404 · SECURITY SUITE</text>
  <text x="64" y="170" class="font title">AEGIS 404</text>
  <text x="66" y="214" class="font sub">Auditoría defensiva · 100% local · sin telemetría</text>

  <g transform="translate(82 272)">
    <path d="M155 0 L285 46 V154 C285 234 232 296 155 330 C78 296 25 234 25 154 V46 Z" fill="#071b28" stroke="url(#accent)" stroke-width="5" filter="url(#glow)"></path>
    <path d="M155 58 L232 85 V151 C232 199 203 238 155 264 C107 238 78 199 78 151 V85 Z" fill="#07111f" stroke="#334155" stroke-width="2"></path>
    <path d="M119 157 L145 184 L198 124" fill="none" stroke="url(#accent)" stroke-width="14" stroke-linecap="round" stroke-linejoin="round"></path>
    <text x="155" y="354" text-anchor="middle" class="font label">ANÁLISIS AUTORIZADO</text>
  </g>

  <rect x="420" y="258" width="760" height="350" rx="26" class="panel"></rect>
  <text x="452" y="298" class="font label">PANEL DE HALLAZGOS</text>
  <g transform="translate(452 324)">
    <g>
      <rect width="332" height="58" rx="14" class="row"></rect>
      <circle cx="28" cy="29" r="9" fill="#22d3ee"></circle>
      <text x="50" y="25" class="font label">CABECERAS HTTP</text>
      <text x="50" y="44" class="font small">HSTS · CSP · COOP · CORP</text>
      <text x="292" y="36" class="font label">A</text>
    </g>
    <g transform="translate(354 0)">
      <rect width="342" height="58" rx="14" class="row"></rect>
      <circle cx="28" cy="29" r="9" fill="#38bdf8"></circle>
      <text x="50" y="25" class="font label">POLÍTICA CSP</text>
      <text x="50" y="44" class="font small">Directivas y endurecimiento</text>
      <text x="300" y="36" class="font label">OK</text>
    </g>
    <g transform="translate(0 76)">
      <rect width="332" height="58" rx="14" class="row"></rect>
      <circle cx="28" cy="29" r="9" fill="#fbbf24"></circle>
      <text x="50" y="25" class="font label">ESCÁNER DE CÓDIGO</text>
      <text x="50" y="44" class="font small">SAST ligero · 16 reglas</text>
      <text x="286" y="36" class="font label">02</text>
    </g>
    <g transform="translate(354 76)">
      <rect width="342" height="58" rx="14" class="row"></rect>
      <circle cx="28" cy="29" r="9" fill="#a78bfa"></circle>
      <text x="50" y="25" class="font label">JWT + COOKIES</text>
      <text x="50" y="44" class="font small">Claims · Secure · SameSite</text>
      <text x="294" y="36" class="font label">08</text>
    </g>
    <g transform="translate(0 152)">
      <rect width="332" height="58" rx="14" class="row"></rect>
      <circle cx="28" cy="29" r="9" fill="#22c55e"></circle>
      <text x="50" y="25" class="font label">OWASP TOP 10</text>
      <text x="50" y="44" class="font small">Checklist y cobertura</text>
      <text x="285" y="36" class="font label">10</text>
    </g>
    <g transform="translate(354 152)">
      <rect width="342" height="58" rx="14" class="row"></rect>
      <circle cx="28" cy="29" r="9" fill="#fb7185"></circle>
      <text x="50" y="25" class="font label">CVSS + INFORME</text>
      <text x="50" y="44" class="font small">Severidad · exportación</text>
      <text x="294" y="36" class="font label">7.4</text>
    </g>
    <rect y="232" width="696" height="42" rx="21" fill="url(#accent)" opacity=".92"></rect>
    <text x="348" y="259" text-anchor="middle" class="font" style="font-size:15px;font-weight:900;fill:#02111c;letter-spacing:1px">PRIVADO POR DISEÑO · TODO EN TU NAVEGADOR</text>
  </g>
  <text x="64" y="670" class="font meta">ETHICAL · OFFLINE · GITHUB PAGES READY</text>
</svg>