<svg xmlns="http://www.w3.org/2000/svg" width="1280" height="720" viewBox="0 0 1280 720" role="img" aria-label="Mockup de AETHERION Editorial OS">
  <defs>
    <linearGradient id="bg" x1="0" y1="0" x2="1" y2="1"><stop stop-color="#070a12"></stop><stop offset="1" stop-color="#111f3a"></stop></linearGradient>
    <radialGradient id="glow" cx="76%" cy="20%" r="70%"><stop stop-color="#60a5fa" stop-opacity=".48"></stop><stop offset=".45" stop-color="#60a5fa" stop-opacity=".12"></stop><stop offset="1" stop-color="#60a5fa" stop-opacity="0"></stop></radialGradient>
    
  </defs>
  <rect width="1280" height="720" rx="42" fill="url(#bg)"></rect>
  <circle cx="1010" cy="116" r="305" fill="url(#glow)"></circle>
  <rect x="28" y="28" width="1224" height="664" rx="34" fill="rgba(255,255,255,.018)" stroke="rgba(255,255,255,.18)" stroke-width="2"></rect>
  <g opacity=".28">
    <line x1="80" y1="110" x2="1200" y2="110" class="line"></line><line x1="80" y1="210" x2="1200" y2="210" class="line"></line><line x1="80" y1="310" x2="1200" y2="310" class="line"></line><line x1="80" y1="410" x2="1200" y2="410" class="line"></line><line x1="80" y1="510" x2="1200" y2="510" class="line"></line>
  </g>
  <text x="58" y="86" class="font meta">Escritura / IA</text>
  <text x="58" y="166" class="font title">AETHERION Editorial OS</text>
  <text x="60" y="214" class="font sub">Panel de escritura, capítulos y arquitectura narrativa.</text>
  
  <g>
    <rect x="520" y="92" width="686" height="520" rx="24" class="panel"></rect>
    <rect x="538" y="108" width="650" height="42" rx="16" fill="rgba(255,255,255,.09)"></rect>
    <circle cx="564" cy="129" r="7" fill="#fb7185"></circle><circle cx="586" cy="129" r="7" fill="#fbbf24"></circle><circle cx="608" cy="129" r="7" fill="#4ade80"></circle>
    <rect x="640" y="117" width="521" height="24" rx="12" fill="rgba(2,6,23,.50)"></rect>
  </g>
  <rect x="558" y="176" width="208" height="360" rx="18" fill="rgba(255,255,255,.08)"></rect>
  <text x="590" y="212" class="font label">Capítulos</text>
  <rect x="586" y="242" width="130" height="18" rx="9" fill="rgba(255,255,255,.30)"></rect><rect x="586" y="278" width="100" height="18" rx="9" fill="rgba(255,255,255,.18)"></rect><rect x="586" y="314" width="145" height="18" rx="9" fill="rgba(255,255,255,.18)"></rect><rect x="586" y="350" width="118" height="18" rx="9" fill="rgba(255,255,255,.18)"></rect>
  <rect x="796" y="176" width="330" height="360" rx="22" fill="rgba(255,255,255,.09)"></rect>
  <rect x="834" y="222" width="220" height="24" rx="12" fill="#f8fbff" opacity=".92"></rect><rect x="834" y="278" width="245" height="14" rx="7" fill="rgba(255,255,255,.26)"></rect><rect x="834" y="304" width="210" height="14" rx="7" fill="rgba(255,255,255,.20)"></rect><rect x="834" y="330" width="255" height="14" rx="7" fill="rgba(255,255,255,.18)"></rect><rect x="834" y="394" width="170" height="42" rx="21" class="accent"></rect>
</svg>