<svg xmlns="http://www.w3.org/2000/svg" width="1280" height="720" viewBox="0 0 1280 720" role="img" aria-label="Mockup de Ajedrez Maestro">
  <defs>
    <linearGradient id="bg" x1="0" y1="0" x2="1" y2="1"><stop stop-color="#05060b"/><stop offset="1" stop-color="#18202a"/></linearGradient>
    <radialGradient id="glow" cx="76%" cy="20%" r="70%"><stop stop-color="#f8fbff" stop-opacity=".48"/><stop offset=".45" stop-color="#f8fbff" stop-opacity=".12"/><stop offset="1" stop-color="#f8fbff" stop-opacity="0"/></radialGradient>
    <style>
      .font { font-family: Inter, Arial, Helvetica, sans-serif; }
      .meta { font-size: 19px; font-weight: 800; fill: rgba(255,255,255,.74); letter-spacing: 4px; text-transform: uppercase; }
      .title { font-size: 54px; font-weight: 950; fill: #f8fbff; letter-spacing: -2.6px; }
      .sub { font-size: 24px; fill: rgba(248,251,255,.72); }
      .label { font-size: 16px; font-weight: 800; fill: rgba(248,251,255,.74); letter-spacing: 1px; }
      .small { font-size: 14px; fill: rgba(248,251,255,.62); }
      .panel { fill: rgba(2,6,23,.54); stroke: rgba(255,255,255,.16); stroke-width: 2; }
      .panel2 { fill: rgba(255,255,255,.075); stroke: rgba(255,255,255,.16); stroke-width: 2; }
      .line { stroke: rgba(255,255,255,.12); stroke-width: 2; }
      .accent { fill: #f8fbff; }
      .accentStroke { stroke: #f8fbff; stroke-width: 4; fill: none; }
      .accent2 { fill: #94a3b8; }
    </style>
  </defs>
  <rect width="1280" height="720" rx="42" fill="url(#bg)"/>
  <circle cx="1010" cy="116" r="305" fill="url(#glow)"/>
  <rect x="28" y="28" width="1224" height="664" rx="34" fill="rgba(255,255,255,.018)" stroke="rgba(255,255,255,.18)" stroke-width="2"/>
  <g opacity=".28">
    <line x1="80" y1="110" x2="1200" y2="110" class="line"/><line x1="80" y1="210" x2="1200" y2="210" class="line"/><line x1="80" y1="310" x2="1200" y2="310" class="line"/><line x1="80" y1="410" x2="1200" y2="410" class="line"/><line x1="80" y1="510" x2="1200" y2="510" class="line"/>
  </g>
  <text x="58" y="86" class="font meta">Juegos / Formación</text>
  <text x="58" y="166" class="font title">Ajedrez Maestro</text>
  <text x="60" y="214" class="font sub">Tablero, formación y juego táctico.</text>
  <g transform="translate(620 110)"><rect x="0" y="0" width="432" height="432" rx="24" class="panel"/><rect x="28" y="28" width="47" height="47" fill="rgba(255,255,255,.13)"/><rect x="75" y="28" width="47" height="47" fill="rgba(2,6,23,.48)"/><rect x="122" y="28" width="47" height="47" fill="rgba(255,255,255,.13)"/><rect x="169" y="28" width="47" height="47" fill="rgba(2,6,23,.48)"/><rect x="216" y="28" width="47" height="47" fill="rgba(255,255,255,.13)"/><rect x="263" y="28" width="47" height="47" fill="rgba(2,6,23,.48)"/><rect x="310" y="28" width="47" height="47" fill="rgba(255,255,255,.13)"/><rect x="357" y="28" width="47" height="47" fill="rgba(2,6,23,.48)"/><rect x="28" y="75" width="47" height="47" fill="rgba(2,6,23,.48)"/><rect x="75" y="75" width="47" height="47" fill="rgba(255,255,255,.13)"/><rect x="122" y="75" width="47" height="47" fill="rgba(2,6,23,.48)"/><rect x="169" y="75" width="47" height="47" fill="rgba(255,255,255,.13)"/><rect x="216" y="75" width="47" height="47" fill="rgba(2,6,23,.48)"/><rect x="263" y="75" width="47" height="47" fill="rgba(255,255,255,.13)"/><rect x="310" y="75" width="47" height="47" fill="rgba(2,6,23,.48)"/><rect x="357" y="75" width="47" height="47" fill="rgba(255,255,255,.13)"/><rect x="28" y="122" width="47" height="47" fill="rgba(255,255,255,.13)"/><rect x="75" y="122" width="47" height="47" fill="rgba(2,6,23,.48)"/><rect x="122" y="122" width="47" height="47" fill="rgba(255,255,255,.13)"/><rect x="169" y="122" width="47" height="47" fill="rgba(2,6,23,.48)"/><rect x="216" y="122" width="47" height="47" fill="rgba(255,255,255,.13)"/><rect x="263" y="122" width="47" height="47" fill="rgba(2,6,23,.48)"/><rect x="310" y="122" width="47" height="47" fill="rgba(255,255,255,.13)"/><rect x="357" y="122" width="47" height="47" fill="rgba(2,6,23,.48)"/><rect x="28" y="169" width="47" height="47" fill="rgba(2,6,23,.48)"/><rect x="75" y="169" width="47" height="47" fill="rgba(255,255,255,.13)"/><rect x="122" y="169" width="47" height="47" fill="rgba(2,6,23,.48)"/><rect x="169" y="169" width="47" height="47" fill="rgba(255,255,255,.13)"/><rect x="216" y="169" width="47" height="47" fill="rgba(2,6,23,.48)"/><rect x="263" y="169" width="47" height="47" fill="rgba(255,255,255,.13)"/><rect x="310" y="169" width="47" height="47" fill="rgba(2,6,23,.48)"/><rect x="357" y="169" width="47" height="47" fill="rgba(255,255,255,.13)"/><rect x="28" y="216" width="47" height="47" fill="rgba(255,255,255,.13)"/><rect x="75" y="216" width="47" height="47" fill="rgba(2,6,23,.48)"/><rect x="122" y="216" width="47" height="47" fill="rgba(255,255,255,.13)"/><rect x="169" y="216" width="47" height="47" fill="rgba(2,6,23,.48)"/><rect x="216" y="216" width="47" height="47" fill="rgba(255,255,255,.13)"/><rect x="263" y="216" width="47" height="47" fill="rgba(2,6,23,.48)"/><rect x="310" y="216" width="47" height="47" fill="rgba(255,255,255,.13)"/><rect x="357" y="216" width="47" height="47" fill="rgba(2,6,23,.48)"/><rect x="28" y="263" width="47" height="47" fill="rgba(2,6,23,.48)"/><rect x="75" y="263" width="47" height="47" fill="rgba(255,255,255,.13)"/><rect x="122" y="263" width="47" height="47" fill="rgba(2,6,23,.48)"/><rect x="169" y="263" width="47" height="47" fill="rgba(255,255,255,.13)"/><rect x="216" y="263" width="47" height="47" fill="rgba(2,6,23,.48)"/><rect x="263" y="263" width="47" height="47" fill="rgba(255,255,255,.13)"/><rect x="310" y="263" width="47" height="47" fill="rgba(2,6,23,.48)"/><rect x="357" y="263" width="47" height="47" fill="rgba(255,255,255,.13)"/><rect x="28" y="310" width="47" height="47" fill="rgba(255,255,255,.13)"/><rect x="75" y="310" width="47" height="47" fill="rgba(2,6,23,.48)"/><rect x="122" y="310" width="47" height="47" fill="rgba(255,255,255,.13)"/><rect x="169" y="310" width="47" height="47" fill="rgba(2,6,23,.48)"/><rect x="216" y="310" width="47" height="47" fill="rgba(255,255,255,.13)"/><rect x="263" y="310" width="47" height="47" fill="rgba(2,6,23,.48)"/><rect x="310" y="310" width="47" height="47" fill="rgba(255,255,255,.13)"/><rect x="357" y="310" width="47" height="47" fill="rgba(2,6,23,.48)"/><rect x="28" y="357" width="47" height="47" fill="rgba(2,6,23,.48)"/><rect x="75" y="357" width="47" height="47" fill="rgba(255,255,255,.13)"/><rect x="122" y="357" width="47" height="47" fill="rgba(2,6,23,.48)"/><rect x="169" y="357" width="47" height="47" fill="rgba(255,255,255,.13)"/><rect x="216" y="357" width="47" height="47" fill="rgba(2,6,23,.48)"/><rect x="263" y="357" width="47" height="47" fill="rgba(255,255,255,.13)"/><rect x="310" y="357" width="47" height="47" fill="rgba(2,6,23,.48)"/><rect x="357" y="357" width="47" height="47" fill="rgba(255,255,255,.13)"/><text x="74" y="74" text-anchor="middle" dominant-baseline="middle" class="font" style="font-size:36px;fill:#f8fbff">♜</text><text x="121" y="121" text-anchor="middle" dominant-baseline="middle" class="font" style="font-size:36px;fill:#f8fbff">♞</text><text x="215" y="168" text-anchor="middle" dominant-baseline="middle" class="font" style="font-size:36px;fill:#f8fbff">♛</text><text x="309" y="309" text-anchor="middle" dominant-baseline="middle" class="font" style="font-size:36px;fill:#f8fbff">♔</text><text x="356" y="356" text-anchor="middle" dominant-baseline="middle" class="font" style="font-size:36px;fill:#f8fbff">♟</text></g>
</svg>