<svg xmlns="http://www.w3.org/2000/svg" width="1280" height="720" viewBox="0 0 1280 720" role="img" aria-label="Mockup de Atlas Librorum">
  <defs>
    <linearGradient id="bg" x1="0" y1="0" x2="1" y2="1"><stop stop-color="#070c10"></stop><stop offset="1" stop-color="#11251e"></stop></linearGradient>
    <radialGradient id="glow" cx="76%" cy="20%" r="70%"><stop stop-color="#4ade80" stop-opacity=".48"></stop><stop offset=".45" stop-color="#4ade80" stop-opacity=".12"></stop><stop offset="1" stop-color="#4ade80" stop-opacity="0"></stop></radialGradient>
    
  </defs>
  <rect width="1280" height="720" rx="42" fill="url(#bg)"></rect>
  <circle cx="1010" cy="116" r="305" fill="url(#glow)"></circle>
  <rect x="28" y="28" width="1224" height="664" rx="34" fill="rgba(255,255,255,.018)" stroke="rgba(255,255,255,.18)" stroke-width="2"></rect>
  <g opacity=".28">
    <line x1="80" y1="110" x2="1200" y2="110" class="line"></line><line x1="80" y1="210" x2="1200" y2="210" class="line"></line><line x1="80" y1="310" x2="1200" y2="310" class="line"></line><line x1="80" y1="410" x2="1200" y2="410" class="line"></line><line x1="80" y1="510" x2="1200" y2="510" class="line"></line>
  </g>
  <text x="58" y="86" class="font meta">Libros / Escritura</text>
  <text x="58" y="166" class="font title">Atlas Librorum</text>
  <text x="60" y="214" class="font sub">Biblioteca, libros y lectura organizada.</text>
  <g transform="translate(570 120)"><rect x="0" y="0" width="560" height="430" rx="28" class="panel"></rect><line x1="54" y1="120" x2="506" y2="120" stroke="rgba(255,255,255,.25)" stroke-width="5"></line><rect x="70" y="60" width="24" height="60" rx="4" fill="rgba(125,211,252,0.2)" stroke="rgba(255,255,255,.15)"></rect><rect x="112" y="43" width="24" height="77" rx="4" fill="rgba(125,211,252,0.27)" stroke="rgba(255,255,255,.15)"></rect><rect x="154" y="26" width="24" height="94" rx="4" fill="rgba(125,211,252,0.34)" stroke="rgba(255,255,255,.15)"></rect><rect x="196" y="64" width="24" height="56" rx="4" fill="rgba(125,211,252,0.41000000000000003)" stroke="rgba(255,255,255,.15)"></rect><rect x="238" y="47" width="24" height="73" rx="4" fill="rgba(125,211,252,0.2)" stroke="rgba(255,255,255,.15)"></rect><rect x="280" y="30" width="24" height="90" rx="4" fill="rgba(125,211,252,0.27)" stroke="rgba(255,255,255,.15)"></rect><rect x="322" y="68" width="24" height="52" rx="4" fill="rgba(125,211,252,0.34)" stroke="rgba(255,255,255,.15)"></rect><rect x="364" y="51" width="24" height="69" rx="4" fill="rgba(125,211,252,0.41000000000000003)" stroke="rgba(255,255,255,.15)"></rect><rect x="406" y="34" width="24" height="86" rx="4" fill="rgba(125,211,252,0.2)" stroke="rgba(255,255,255,.15)"></rect><rect x="448" y="17" width="24" height="103" rx="4" fill="rgba(125,211,252,0.27)" stroke="rgba(255,255,255,.15)"></rect><line x1="54" y1="250" x2="506" y2="250" stroke="rgba(255,255,255,.25)" stroke-width="5"></line><rect x="70" y="170" width="24" height="80" rx="4" fill="rgba(125,211,252,0.2)" stroke="rgba(255,255,255,.15)"></rect><rect x="112" y="153" width="24" height="97" rx="4" fill="rgba(125,211,252,0.27)" stroke="rgba(255,255,255,.15)"></rect><rect x="154" y="191" width="24" height="59" rx="4" fill="rgba(125,211,252,0.34)" stroke="rgba(255,255,255,.15)"></rect><rect x="196" y="174" width="24" height="76" rx="4" fill="rgba(125,211,252,0.41000000000000003)" stroke="rgba(255,255,255,.15)"></rect><rect x="238" y="157" width="24" height="93" rx="4" fill="rgba(125,211,252,0.2)" stroke="rgba(255,255,255,.15)"></rect><rect x="280" y="195" width="24" height="55" rx="4" fill="rgba(125,211,252,0.27)" stroke="rgba(255,255,255,.15)"></rect><rect x="322" y="178" width="24" height="72" rx="4" fill="rgba(125,211,252,0.34)" stroke="rgba(255,255,255,.15)"></rect><rect x="364" y="161" width="24" height="89" rx="4" fill="rgba(125,211,252,0.41000000000000003)" stroke="rgba(255,255,255,.15)"></rect><rect x="406" y="199" width="24" height="51" rx="4" fill="rgba(125,211,252,0.2)" stroke="rgba(255,255,255,.15)"></rect><rect x="448" y="182" width="24" height="68" rx="4" fill="rgba(125,211,252,0.27)" stroke="rgba(255,255,255,.15)"></rect><line x1="54" y1="380" x2="506" y2="380" stroke="rgba(255,255,255,.25)" stroke-width="5"></line><rect x="70" y="280" width="24" height="100" rx="4" fill="rgba(125,211,252,0.2)" stroke="rgba(255,255,255,.15)"></rect><rect x="112" y="318" width="24" height="62" rx="4" fill="rgba(125,211,252,0.27)" stroke="rgba(255,255,255,.15)"></rect><rect x="154" y="301" width="24" height="79" rx="4" fill="rgba(125,211,252,0.34)" stroke="rgba(255,255,255,.15)"></rect><rect x="196" y="284" width="24" height="96" rx="4" fill="rgba(125,211,252,0.41000000000000003)" stroke="rgba(255,255,255,.15)"></rect><rect x="238" y="322" width="24" height="58" rx="4" fill="rgba(125,211,252,0.2)" stroke="rgba(255,255,255,.15)"></rect><rect x="280" y="305" width="24" height="75" rx="4" fill="rgba(125,211,252,0.27)" stroke="rgba(255,255,255,.15)"></rect><rect x="322" y="288" width="24" height="92" rx="4" fill="rgba(125,211,252,0.34)" stroke="rgba(255,255,255,.15)"></rect><rect x="364" y="326" width="24" height="54" rx="4" fill="rgba(125,211,252,0.41000000000000003)" stroke="rgba(255,255,255,.15)"></rect><rect x="406" y="309" width="24" height="71" rx="4" fill="rgba(125,211,252,0.2)" stroke="rgba(255,255,255,.15)"></rect><rect x="448" y="292" width="24" height="88" rx="4" fill="rgba(125,211,252,0.27)" stroke="rgba(255,255,255,.15)"></rect></g>
</svg>