<svg xmlns="http://www.w3.org/2000/svg" width="1280" height="720" viewBox="0 0 1280 720" role="img" aria-label="Mockup de Atlas Web Pro">
  <defs>
    <linearGradient id="bg" x1="0" y1="0" x2="1" y2="1"><stop stop-color="#051018"></stop><stop offset="1" stop-color="#082a37"></stop></linearGradient>
    <radialGradient id="glow" cx="76%" cy="20%" r="70%"><stop stop-color="#22d3ee" stop-opacity=".48"></stop><stop offset=".45" stop-color="#22d3ee" stop-opacity=".12"></stop><stop offset="1" stop-color="#22d3ee" stop-opacity="0"></stop></radialGradient>
    
  </defs>
  <rect width="1280" height="720" rx="42" fill="url(#bg)"></rect>
  <circle cx="1010" cy="116" r="305" fill="url(#glow)"></circle>
  <rect x="28" y="28" width="1224" height="664" rx="34" fill="rgba(255,255,255,.018)" stroke="rgba(255,255,255,.18)" stroke-width="2"></rect>
  <g opacity=".28">
    <line x1="80" y1="110" x2="1200" y2="110" class="line"></line><line x1="80" y1="210" x2="1200" y2="210" class="line"></line><line x1="80" y1="310" x2="1200" y2="310" class="line"></line><line x1="80" y1="410" x2="1200" y2="410" class="line"></line><line x1="80" y1="510" x2="1200" y2="510" class="line"></line>
  </g>
  <text x="58" y="86" class="font meta">Productividad / Directorios</text>
  <text x="58" y="166" class="font title">Atlas Web Pro</text>
  <text x="60" y="214" class="font sub">Directorio y mapa visual de recursos web.</text>
  
  <g>
    <rect x="540" y="100" width="660" height="510" rx="24" class="panel"></rect>
    <rect x="558" y="116" width="624" height="42" rx="16" fill="rgba(255,255,255,.09)"></rect>
    <circle cx="584" cy="137" r="7" fill="#fb7185"></circle><circle cx="606" cy="137" r="7" fill="#fbbf24"></circle><circle cx="628" cy="137" r="7" fill="#4ade80"></circle>
    <rect x="660" y="125" width="495" height="24" rx="12" fill="rgba(2,6,23,.50)"></rect>
  </g>
  <rect x="580" y="188" width="158" height="360" rx="18" class="panel2"></rect>
  <text x="606" y="226" class="font label">Bloques</text>
  <rect x="602" y="250" width="104" height="26" rx="13" class="accent" opacity=".9"></rect><rect x="602" y="292" width="92" height="20" rx="10" fill="rgba(255,255,255,.17)"></rect><rect x="602" y="326" width="118" height="20" rx="10" fill="rgba(255,255,255,.17)"></rect><rect x="602" y="360" width="88" height="20" rx="10" fill="rgba(255,255,255,.17)"></rect>
  <rect x="770" y="188" width="382" height="360" rx="22" fill="rgba(255,255,255,.08)" stroke="rgba(255,255,255,.18)" stroke-width="2"></rect>
  <rect x="800" y="220" width="200" height="24" rx="12" fill="#f8fbff" opacity=".92"></rect><rect x="800" y="260" width="300" height="16" rx="8" fill="rgba(255,255,255,.28)"></rect><rect x="800" y="286" width="240" height="16" rx="8" fill="rgba(255,255,255,.20)"></rect>
  <rect x="800" y="332" width="130" height="46" rx="23" class="accent"></rect><rect x="946" y="332" width="130" height="46" rx="23" fill="rgba(255,255,255,.12)" stroke="rgba(255,255,255,.20)"></rect>
  <rect x="800" y="420" width="88" height="80" rx="16" fill="rgba(34,211,238,.20)"></rect><rect x="910" y="420" width="88" height="80" rx="16" fill="rgba(167,139,250,.20)"></rect><rect x="1020" y="420" width="88" height="80" rx="16" fill="rgba(125,211,252,.17)"></rect>
  <rect x="60" y="550" width="270" height="54" rx="27" fill="#f8fbff"></rect><text x="92" y="585" class="font label" fill="#020617">CREAR MODELO WEB</text>
  <rect x="350" y="550" width="164" height="54" rx="27" fill="rgba(255,255,255,.10)" stroke="rgba(255,255,255,.25)"></rect><text x="386" y="585" class="font label">MOCKUPS</text>
</svg>