<svg xmlns="http://www.w3.org/2000/svg" viewBox="0 0 1600 900" role="img" aria-labelledby="t d"><title id="t">CHRONOS 404</title><desc id="d">Ilustración editorial de explorador histórico y línea temporal</desc><defs><linearGradient id="b" x2="1" y2="1"><stop stop-color="#171726"/><stop offset="1" stop-color="#3a2d31"/></linearGradient></defs><rect width="1600" height="900" fill="url(#b)"/><g stroke="#b0a079" opacity=".14"><path d="M0 190H1600M0 380H1600M0 570H1600M0 760H1600M200 0V900M400 0V900M600 0V900M800 0V900M1000 0V900M1200 0V900M1400 0V900"/></g><text x="114" y="170" font-family="Georgia,serif" font-size="104" fill="#f5e5bc">CHRONOS <tspan fill="#d8a867">404</tspan></text><text x="120" y="225" font-family="Arial,sans-serif" font-size="24" letter-spacing="6" fill="#c8b595">HISTORY EXPLORER</text><rect x="108" y="286" width="1384" height="493" rx="21" fill="#201e2a" stroke="#816b54" stroke-width="3"/><path d="M185 545H1410" stroke="#c59c69" stroke-width="8"/><g fill="#e8c691" stroke="#241e28" stroke-width="7"><circle cx="300" cy="545" r="29"/><circle cx="560" cy="545" r="29"/><circle cx="820" cy="545" r="29"/><circle cx="1080" cy="545" r="29"/><circle cx="1360" cy="545" r="29"/></g><g font-family="Georgia,serif" fill="#eadbc1" font-size="34" text-anchor="middle"><text x="300" y="475">ANTIGÜEDAD</text><text x="560" y="637">IMPERIOS</text><text x="820" y="475">CULTURAS</text><text x="1080" y="637">CIUDADES</text><text x="1360" y="475">LEGADO</text></g><text x="120" y="843" font-family="Arial,sans-serif" font-size="24" fill="#c9b395">ATLAS  ·  MÁQUINA DEL TIEMPO  ·  RECORRIDOS  ·  BIBLIOTECA</text></svg>