<svg xmlns="http://www.w3.org/2000/svg" viewBox="0 0 1600 900" role="img" aria-labelledby="t d"><title id="t">EIFFEL 404</title><desc id="d">Portada ilustrada de la Torre Eiffel y París 3D</desc><defs><linearGradient id="bg" x2="0" y2="1"><stop stop-color="#121a32"/><stop offset="1" stop-color="#6c4858"/></linearGradient><linearGradient id="metal" x2="0" y2="1"><stop stop-color="#f5d6a0"/><stop offset="1" stop-color="#d6a87c"/></linearGradient></defs><rect width="1600" height="900" fill="url(#bg)"/><circle cx="1250" cy="245" r="125" fill="#e6bba1" opacity=".55"/><text x="102" y="174" font-family="Georgia,serif" font-weight="bold" font-size="116" fill="#fff0dd">EIFFEL <tspan fill="#ffc99e">404</tspan></text><text x="110" y="224" font-family="Arial,sans-serif" font-size="27" letter-spacing="6" fill="#e9c6b3">PARIS · IMMERSIVE 3D EXPERIENCE</text><g stroke="url(#metal)" fill="none" stroke-width="14" stroke-linejoin="round"><path d="M790 265 706 730 863 730Z"/><path d="M790 265V730"/><path d="M748 405H824M722 550H846M691 700H870"/><path d="M727 550 832 405M853 550 745 405M692 700 852 550M867 700 728 550"/><path d="M780 266V210H801V266"/><path d="M685 730H882"/></g><g fill="#1e2c40" opacity=".75"><path d="M0 755H1600V900H0Z"/><path d="M30 755V660H145V755M155 755V620H270V755M300 755V686H420V755M1160 755V650H1275V755M1305 755V685H1420V755M1450 755V605H1550V755"/></g><path d="M0 755H1600" stroke="#f6c69c" opacity=".5" stroke-width="4"/><text x="110" y="854" font-family="Arial,sans-serif" font-size="23" fill="#ffdfcd">TORRE EIFFEL · CIUDAD · JARDINES · VISITA GUIADA · MODO FOTO</text></svg>