<svg xmlns="http://www.w3.org/2000/svg" width="1280" height="720" viewBox="0 0 1280 720" role="img" aria-labelledby="t d">
<title id="t">FOCUS 404</title><desc id="d">Centro privado de concentración y trabajo profundo</desc>
<defs><linearGradient id="bg" x1="0" y1="0" x2="1" y2="1"><stop stop-color="#061018"></stop><stop offset="1" stop-color="#0b1b24"></stop></linearGradient><radialGradient id="g"><stop stop-color="#43d9ff" stop-opacity=".28"></stop><stop offset="1" stop-color="#43d9ff" stop-opacity="0"></stop></radialGradient></defs>
<rect width="1280" height="720" fill="url(#bg)"></rect><circle cx="1030" cy="130" r="420" fill="url(#g)"></circle>
<text x="70" y="74" fill="#55ddff" font-family="monospace" font-size="18" letter-spacing="7">UNIVERSO 404 · DEEP WORK SYSTEM</text>
<text x="70" y="152" fill="#f2fbff" font-family="Georgia,serif" font-size="66">FOCUS 404</text>
<text x="70" y="194" fill="#8faab5" font-family="monospace" font-size="19">CONCENTRACIÓN PRIVADA · RITMO · SILENCIO</text>
<g transform="translate(70 245)"><rect width="760" height="365" rx="18" fill="#09141d" stroke="#2fcdea" stroke-opacity=".45"></rect><text x="34" y="48" fill="#6ce8ff" font-family="monospace" font-size="16">SESIÓN ACTIVA</text><text x="34" y="142" fill="#ffffff" font-family="monospace" font-size="82">42:18</text><rect x="34" y="178" width="670" height="12" rx="6" fill="#17303c"></rect><rect x="34" y="178" width="438" height="12" rx="6" fill="#45d9f5"></rect><g font-family="monospace" font-size="15"><rect x="34" y="230" width="200" height="54" rx="10" fill="#102632"></rect><text x="58" y="263" fill="#d7f8ff">OBJETIVO 3/5</text><rect x="248" y="230" width="200" height="54" rx="10" fill="#102632"></rect><text x="270" y="263" fill="#d7f8ff">AMBIENTE: LLUVIA</text><rect x="462" y="230" width="242" height="54" rx="10" fill="#45d9f5"></rect><text x="492" y="263" fill="#061018" font-weight="700">PAUSAR SESIÓN</text></g><text x="34" y="330" fill="#78939e" font-family="monospace" font-size="14">Datos locales · sin cuentas · sin distracciones</text></g>
<g transform="translate(875 245)"><rect width="335" height="365" rx="18" fill="#09141d" stroke="#2fcdea" stroke-opacity=".35"></rect><text x="28" y="48" fill="#6ce8ff" font-family="monospace" font-size="15">PULSO DIARIO</text><text x="28" y="105" fill="#fff" font-family="Georgia,serif" font-size="34">3 h 24 min</text><g fill="#45d9f5"><rect x="30" y="280" width="28" height="42"></rect><rect x="72" y="250" width="28" height="72"></rect><rect x="114" y="205" width="28" height="117"></rect><rect x="156" y="230" width="28" height="92"></rect><rect x="198" y="166" width="28" height="156"></rect><rect x="240" y="118" width="28" height="204"></rect></g><text x="28" y="345" fill="#78939e" font-family="monospace" font-size="13">PROGRESO GUARDADO EN TU DISPOSITIVO</text></g>
</svg>