<svg xmlns="http://www.w3.org/2000/svg" width="1280" height="720" viewBox="0 0 1280 720" role="img" aria-label="Mockup de fotocinema">
  <defs>
    <linearGradient id="bg" x1="0" y1="0" x2="1" y2="1"><stop stop-color="#071018"/><stop offset="1" stop-color="#1a2638"/></linearGradient>
    <radialGradient id="glow" cx="76%" cy="20%" r="70%"><stop stop-color="#60a5fa" stop-opacity=".48"/><stop offset=".45" stop-color="#60a5fa" stop-opacity=".12"/><stop offset="1" stop-color="#60a5fa" stop-opacity="0"/></radialGradient>
    <style>
      .font { font-family: Inter, Arial, Helvetica, sans-serif; }
      .meta { font-size: 19px; font-weight: 800; fill: rgba(255,255,255,.74); letter-spacing: 4px; text-transform: uppercase; }
      .title { font-size: 54px; font-weight: 950; fill: #f8fbff; letter-spacing: -2.6px; }
      .sub { font-size: 24px; fill: rgba(248,251,255,.72); }
      .label { font-size: 16px; font-weight: 800; fill: rgba(248,251,255,.74); letter-spacing: 1px; }
      .small { font-size: 14px; fill: rgba(248,251,255,.62); }
      .panel { fill: rgba(2,6,23,.54); stroke: rgba(255,255,255,.16); stroke-width: 2; }
      .panel2 { fill: rgba(255,255,255,.075); stroke: rgba(255,255,255,.16); stroke-width: 2; }
      .line { stroke: rgba(255,255,255,.12); stroke-width: 2; }
      .accent { fill: #60a5fa; }
      .accentStroke { stroke: #60a5fa; stroke-width: 4; fill: none; }
      .accent2 { fill: #fbbf24; }
    </style>
  </defs>
  <rect width="1280" height="720" rx="42" fill="url(#bg)"/>
  <circle cx="1010" cy="116" r="305" fill="url(#glow)"/>
  <rect x="28" y="28" width="1224" height="664" rx="34" fill="rgba(255,255,255,.018)" stroke="rgba(255,255,255,.18)" stroke-width="2"/>
  <g opacity=".28">
    <line x1="80" y1="110" x2="1200" y2="110" class="line"/><line x1="80" y1="210" x2="1200" y2="210" class="line"/><line x1="80" y1="310" x2="1200" y2="310" class="line"/><line x1="80" y1="410" x2="1200" y2="410" class="line"/><line x1="80" y1="510" x2="1200" y2="510" class="line"/>
  </g>
  <text x="58" y="86" class="font meta">Visual / Foto</text>
  <text x="58" y="166" class="font title">fotocinema</text>
  <text x="60" y="214" class="font sub">Herramientas visuales para imagen y cine.</text>
  <g transform="translate(560 130)"><rect x="0" y="0" width="570" height="420" rx="28" class="panel"/><rect x="42" y="46" width="210" height="140" rx="20" fill="#60a5fa" opacity=".20" stroke="#60a5fa" stroke-opacity=".50" stroke-width="2"/><circle cx="87" cy="91" r="20" fill="#60a5fa" opacity=".75"/><path d="M62 156 L112 96 L160 142 L232 74 L232 166 L62 166 Z" fill="#60a5fa" opacity=".35"/><rect x="278" y="46" width="240" height="140" rx="20" fill="#a78bfa" opacity=".20" stroke="#a78bfa" stroke-opacity=".50" stroke-width="2"/><circle cx="323" cy="91" r="20" fill="#a78bfa" opacity=".75"/><path d="M298 156 L348 96 L396 142 L498 74 L498 166 L298 166 Z" fill="#a78bfa" opacity=".35"/><rect x="42" y="214" width="150" height="150" rx="20" fill="#22d3ee" opacity=".20" stroke="#22d3ee" stroke-opacity=".50" stroke-width="2"/><circle cx="87" cy="259" r="20" fill="#22d3ee" opacity=".75"/><path d="M62 334 L112 274 L160 320 L172 252 L172 344 L62 344 Z" fill="#22d3ee" opacity=".35"/><rect x="218" y="214" width="300" height="150" rx="20" fill="#fbbf24" opacity=".20" stroke="#fbbf24" stroke-opacity=".50" stroke-width="2"/><circle cx="263" cy="259" r="20" fill="#fbbf24" opacity=".75"/><path d="M238 334 L288 274 L336 320 L498 252 L498 344 L238 344 Z" fill="#fbbf24" opacity=".35"/></g>
</svg>