<svg xmlns="http://www.w3.org/2000/svg" width="1280" height="720" viewBox="0 0 1280 720" role="img" aria-label="Preview de Guardian-Senior-AI">
  <defs>
    <linearGradient id="g" x1="0" y1="0" x2="1" y2="1">
      <stop stop-color="#061218"></stop>
      <stop offset="1" stop-color="#344b5b"></stop>
    </linearGradient>
    <radialGradient id="r" cx="70%" cy="20%" r="65%">
      <stop stop-color="rgba(255,255,255,.42)"></stop>
      <stop offset=".42" stop-color="rgba(255,255,255,.08)"></stop>
      <stop offset="1" stop-color="rgba(255,255,255,0)"></stop>
    </radialGradient>
    
  </defs>
  <rect width="1280" height="720" rx="42" fill="url(#g)"></rect>
  <rect x="28" y="28" width="1224" height="664" rx="34" fill="none" stroke="rgba(255,255,255,.18)" stroke-width="2"></rect>
  <circle cx="980" cy="130" r="260" fill="url(#r)"></circle>
  <path d="M780 80 C1060 80 1140 260 1088 450 C1040 620 840 670 690 585" fill="none" stroke="rgba(255,255,255,.10)" stroke-width="28"></path>
  <g opacity=".35">
    <line x1="0" y1="90" x2="1280" y2="90" class="line"></line>
    <line x1="0" y1="180" x2="1280" y2="180" class="line"></line>
    <line x1="0" y1="270" x2="1280" y2="270" class="line"></line>
    <line x1="0" y1="360" x2="1280" y2="360" class="line"></line>
    <line x1="0" y1="450" x2="1280" y2="450" class="line"></line>
    <line x1="0" y1="540" x2="1280" y2="540" class="line"></line>
    <line x1="0" y1="630" x2="1280" y2="630" class="line"></line>
  </g>
  <text x="48" y="92" class="meta">Vida privada</text>
  <text x="1050" y="148" class="symbol">●</text>
  <text x="48" y="188" class="title">Guardian Senior AI</text>
  <text x="48" y="430" class="desc">PWA local para ayudar a personas mayores a</text>
<text x="48" y="460" class="desc">pedir ayuda rápidamente desde un móvil,</text>
  <rect x="48" y="590" width="280" height="52" rx="26" fill="rgba(255,255,255,.86)"></rect>
  <text x="78" y="624" style="font-family: Arial, Helvetica, sans-serif; font-size: 22px; font-weight: 800; fill: #080a12;">ABRIR APP</text>
  <rect x="348" y="590" width="210" height="52" rx="26" fill="rgba(255,255,255,.10)" stroke="rgba(255,255,255,.28)"></rect>
  <text x="383" y="624" style="font-family: Arial, Helvetica, sans-serif; font-size: 22px; font-weight: 800; fill: #e8fbff;">GITHUB</text>
</svg>