<svg xmlns="http://www.w3.org/2000/svg" viewBox="0 0 1200 675" role="img" aria-labelledby="title desc"><title id="title">HomeOps 404</title><desc id="desc">Portada editorial para HomeOps 404, gestión doméstica local-first.</desc><defs><linearGradient id="bg" x1="0" y1="0" x2="1" y2="1"><stop stop-color="#08111a"/><stop offset="1" stop-color="#14231f"/></linearGradient><linearGradient id="panel" x1="0" y1="0" x2="1" y2="1"><stop stop-color="#16352d"/><stop offset="1" stop-color="#0d1d1a"/></linearGradient></defs><rect width="1200" height="675" fill="url(#bg)"/><rect x="46" y="42" width="1108" height="591" rx="34" fill="none" stroke="#406f62" stroke-width="3"/><g transform="translate(90 105)"><rect x="0" y="0" width="420" height="360" rx="28" fill="url(#panel)" stroke="#4f8a79" stroke-width="3"/><path d="M78 193L210 78l132 115v120H78z" fill="#0b1715" stroke="#8fd7bd" stroke-width="8" stroke-linejoin="round"/><path d="M157 313v-84h106v84" fill="#17392f" stroke="#8fd7bd" stroke-width="7"/><rect x="99" y="226" width="42" height="42" rx="5" fill="#d7b66a"/><rect x="279" y="226" width="42" height="42" rx="5" fill="#d7b66a"/></g><g transform="translate(570 115)" font-family="system-ui,sans-serif"><text x="0" y="70" fill="#f4f7f5" font-size="72" font-weight="800">HOMEOPS 404</text><text x="3" y="118" fill="#8fd7bd" font-size="25" font-weight="700" letter-spacing="7">GESTIÓN DEL HOGAR · LOCAL-FIRST</text><g transform="translate(4 170)" font-size="24" fill="#d8e1de"><rect x="0" y="0" width="250" height="68" rx="16" fill="#132722" stroke="#34594f"/><text x="26" y="43">✓ Tareas</text><rect x="275" y="0" width="250" height="68" rx="16" fill="#132722" stroke="#34594f"/><text x="301" y="43">⌂ Inventario</text><rect x="0" y="92" width="250" height="68" rx="16" fill="#132722" stroke="#34594f"/><text x="26" y="135">€ Gastos</text><rect x="275" y="92" width="250" height="68" rx="16" fill="#132722" stroke="#34594f"/><text x="301" y="135">▣ Documentos</text><rect x="0" y="184" width="250" height="68" rx="16" fill="#132722" stroke="#34594f"/><text x="26" y="227">↻ Mantenimiento</text><rect x="275" y="184" width="250" height="68" rx="16" fill="#132722" stroke="#34594f"/><text x="301" y="227">☑ Compras</text></g></g><text x="92" y="580" fill="#8da59d" font-family="monospace" font-size="20" letter-spacing="4">PWA · INDEXEDDB · OFFLINE · BACKUPS AES-GCM-256</text></svg>