<svg xmlns="http://www.w3.org/2000/svg" width="1280" height="720" viewBox="0 0 1280 720" role="img" aria-labelledby="title desc">
  <title id="title">Horror Sound Forge 404 — Open Audio Atlas</title>
  <desc id="desc">Estudio de terror con mezclador de capas, atlas de audio abierto con licencias y línea temporal con render WAV</desc>
  <defs>
    <linearGradient id="bg" x1="0" y1="0" x2="1" y2="1">
      <stop offset="0" stop-color="#080a0f"></stop>
      <stop offset="0.55" stop-color="#0d1420"></stop>
      <stop offset="1" stop-color="#06080c"></stop>
    </linearGradient>
    <radialGradient id="glow" cx="70%" cy="20%" r="72%">
      <stop offset="0" stop-color="#7a4dff" stop-opacity=".26"></stop>
      <stop offset="1" stop-color="#7a4dff" stop-opacity="0"></stop>
    </radialGradient>
    <radialGradient id="ember" cx="18%" cy="88%" r="46%">
      <stop offset="0" stop-color="#ff4d5e" stop-opacity=".18"></stop>
      <stop offset="1" stop-color="#ff4d5e" stop-opacity="0"></stop>
    </radialGradient>
    <linearGradient id="meter" x1="0" y1="1" x2="0" y2="0">
      <stop offset="0" stop-color="#8b5cff"></stop>
      <stop offset="1" stop-color="#d9c4ff"></stop>
    </linearGradient>
    <filter id="shadow"><feDropShadow dx="0" dy="18" stdDeviation="18" flood-color="#000" flood-opacity=".6"></feDropShadow></filter>
  </defs>
  <rect width="1280" height="720" fill="url(#bg)"></rect>
  <rect width="1280" height="720" fill="url(#glow)"></rect>
  <rect width="1280" height="720" fill="url(#ember)"></rect>

  <g transform="translate(62 46)">
    <text x="0" y="18" fill="#9b7bff" font-family="monospace" font-size="17" letter-spacing="7">UNIVERSO 404 · AUDIO LAB · OPEN AUDIO ATLAS</text>
    <text x="0" y="88" fill="#f2eeff" font-family="Georgia,serif" font-size="60">Horror Sound Forge 404</text>
    <text x="0" y="126" fill="#8e93a8" font-family="monospace" font-size="20">ATMÓSFERAS · MEZCLA REAL Y PROCEDURAL · RENDER WAV</text>
  </g>

  <g transform="translate(62 205)" filter="url(#shadow)">
    <rect width="790" height="405" rx="16" fill="#0b0f18" stroke="#7a4dff" stroke-opacity=".42"></rect>
    <rect width="790" height="38" rx="16" fill="#141b2a"></rect>
    <rect y="24" width="790" height="14" fill="#141b2a"></rect>
    <circle cx="24" cy="19" r="6" fill="#ff5d65"></circle><circle cx="45" cy="19" r="6" fill="#ffd45d"></circle><circle cx="66" cy="19" r="6" fill="#55e58b"></circle>
    <text x="96" y="25" fill="#dcd6f5" font-family="monospace" font-size="15">v6.0.0 — ESCENA: Culto bajo la catedral</text>

    <rect x="18" y="58" width="754" height="44" rx="7" fill="#0f1421" stroke="#332a55"></rect>
    <text x="34" y="85" fill="#c9b6ff" font-family="monospace" font-size="16">▶ MOTOR ACTIVO   ·   Master 72%   ·   Ritual vivo   ·   48 BPM</text>

    <g transform="translate(18 120)">
      <rect width="355" height="251" rx="8" fill="#080c14" stroke="#2b2447"></rect>
      <text x="20" y="32" fill="#9b7bff" font-family="monospace" font-size="15">MEZCLADOR RITUAL · 24 CAPAS</text>
      <g transform="translate(20 52)">
        <g fill="url(#meter)">
          <rect x="0" y="52" width="13" height="58" rx="3"></rect><rect x="20" y="24" width="13" height="86" rx="3"></rect>
          <rect x="40" y="70" width="13" height="40" rx="3"></rect><rect x="60" y="8" width="13" height="102" rx="3"></rect>
          <rect x="80" y="44" width="13" height="66" rx="3"></rect><rect x="100" y="80" width="13" height="30" rx="3"></rect>
          <rect x="120" y="30" width="13" height="80" rx="3"></rect><rect x="140" y="62" width="13" height="48" rx="3"></rect>
          <rect x="160" y="16" width="13" height="94" rx="3"></rect><rect x="180" y="72" width="13" height="38" rx="3"></rect>
          <rect x="200" y="38" width="13" height="72" rx="3"></rect><rect x="220" y="56" width="13" height="54" rx="3"></rect>
          <rect x="240" y="20" width="13" height="90" rx="3"></rect><rect x="260" y="66" width="13" height="44" rx="3"></rect>
          <rect x="280" y="34" width="13" height="76" rx="3"></rect><rect x="300" y="78" width="13" height="32" rx="3"></rect>
        </g>
        <rect x="0" y="116" width="313" height="1" fill="#332a55"></rect>
      </g>
      <text x="20" y="205" fill="#8e93a8" font-family="monospace" font-size="14">Coro · piedra · campanas · presencia</text>
      <rect x="20" y="220" width="180" height="18" rx="4" fill="#1a1330"></rect>
      <rect x="20" y="220" width="105" height="18" rx="4" fill="#8b5cff"></rect>
      <text x="212" y="234" fill="#c9b6ff" font-family="monospace" font-size="12">REVERB 84%</text>
    </g>

    <g transform="translate(392 120)">
      <rect width="380" height="116" rx="8" fill="#080c14" stroke="#2b2447"></rect>
      <text x="18" y="28" fill="#9b7bff" font-family="monospace" font-size="14">ATLAS DE AUDIO ABIERTO</text>
      <text x="18" y="58" fill="#eee9ff" font-family="monospace" font-size="15">Openverse · Wikimedia · Freesound</text>
      <rect x="18" y="74" width="148" height="26" rx="13" fill="#12301f" stroke="#2f7d52"></rect>
      <text x="32" y="92" fill="#6ee7a0" font-family="monospace" font-size="12">SOLO PD / CC0</text>
      <rect x="176" y="74" width="120" height="26" rx="13" fill="#1a1330" stroke="#5b3fa8"></rect>
      <text x="190" y="92" fill="#c9b6ff" font-family="monospace" font-size="12">SHA-256</text>

      <rect y="134" width="380" height="117" rx="8" fill="#111726" stroke="#2b2447"></rect>
      <text x="18" y="163" fill="#9b7bff" font-family="monospace" font-size="14">LÍNEA TEMPORAL · RENDER</text>
      <g transform="translate(18 176)">
        <rect width="344" height="26" rx="4" fill="#0a0e17" stroke="#2b2447"></rect>
        <rect x="2" y="2" width="96" height="22" rx="3" fill="#5b3fa8"></rect>
        <rect x="102" y="2" width="72" height="22" rx="3" fill="#7a4dff" opacity=".75"></rect>
        <rect x="178" y="2" width="118" height="22" rx="3" fill="#8b5cff" opacity=".55"></rect>
      </g>
      <text x="18" y="240" fill="#8e93a8" font-family="monospace" font-size="13">WAV 48 kHz · fundidos independientes</text>
    </g>
  </g>

  <g transform="translate(885 205)" filter="url(#shadow)">
    <rect width="333" height="405" rx="16" fill="#0b0f18" stroke="#7a4dff" stroke-opacity=".35"></rect>
    <text x="24" y="42" fill="#9b7bff" font-family="monospace" font-size="15" letter-spacing="3">BIBLIOTECA 404</text>
    <text x="24" y="84" fill="#f2eeff" font-family="Georgia,serif" font-size="27">AUDIO ORIGINAL</text>
    <g font-family="monospace" font-size="14">
      <rect x="24" y="112" width="285" height="48" rx="7" fill="#141b2a"></rect><text x="42" y="142" fill="#e4dcff">PAQUETES AMPLIABLES</text>
      <rect x="24" y="174" width="285" height="48" rx="7" fill="#141b2a"></rect><text x="42" y="204" fill="#e4dcff">LICENCIAS CONSERVADAS</text>
      <rect x="24" y="236" width="285" height="48" rx="7" fill="#141b2a"></rect><text x="42" y="266" fill="#e4dcff">GRABACIONES PROPIAS</text>
      <rect x="24" y="310" width="285" height="58" rx="7" fill="#8b5cff"></rect><text x="42" y="345" fill="#0b0f18" font-weight="700">PROVOCAR SUCESO →</text>
    </g>
  </g>

  <text x="62" y="672" fill="#7d8296" font-family="monospace" font-size="15">Sin material extraído de películas, series ni videojuegos · fuentes abiertas verificadas · offline</text>
</svg>