<svg xmlns="http://www.w3.org/2000/svg" width="1280" height="720" viewBox="0 0 1280 720" role="img" aria-labelledby="t d">
<title id="t">Lexicon 404</title><desc id="d">Atlas lingüístico privado y ampliable</desc>
<defs><linearGradient id="bg" x1="0" y1="0" x2="1" y2="1"><stop stop-color="#0a0a0d"></stop><stop offset="1" stop-color="#1b1510"></stop></linearGradient><radialGradient id="g"><stop stop-color="#d6a84f" stop-opacity=".26"></stop><stop offset="1" stop-color="#d6a84f" stop-opacity="0"></stop></radialGradient></defs>
<rect width="1280" height="720" fill="url(#bg)"></rect><circle cx="1025" cy="100" r="420" fill="url(#g)"></circle>
<text x="70" y="74" fill="#d8ad58" font-family="monospace" font-size="18" letter-spacing="7">UNIVERSO 404 · PRIVATE LANGUAGE ATLAS</text>
<text x="70" y="152" fill="#fff8e8" font-family="Georgia,serif" font-size="66">Lexicon 404</text>
<text x="70" y="194" fill="#a89d8d" font-family="monospace" font-size="19">ATLAS LINGÜÍSTICO PRIVADO Y AMPLIABLE</text>
<g transform="translate(70 244)"><rect width="780" height="370" rx="18" fill="#111013" stroke="#d8ad58" stroke-opacity=".42"></rect><rect x="30" y="28" width="720" height="58" rx="12" fill="#1a1717" stroke="#5d4b2a"></rect><text x="52" y="64" fill="#f4dfb0" font-family="monospace" font-size="18">buscar palabra, raíz, idioma o etiqueta…</text><text x="30" y="137" fill="#d8ad58" font-family="monospace" font-size="15">RESULTADO · ESPAÑOL → JAPONÉS</text><text x="30" y="205" fill="#fff8e8" font-family="Georgia,serif" font-size="48">umbral</text><text x="30" y="250" fill="#b8ab99" font-family="monospace" font-size="17">境界 · kyōkai · límite entre dos estados</text><g font-family="monospace" font-size="14"><rect x="30" y="292" width="150" height="42" rx="9" fill="#d8ad58"></rect><text x="53" y="318" fill="#111013" font-weight="700">ESCUCHAR</text><rect x="194" y="292" width="150" height="42" rx="9" fill="#201b16"></rect><text x="219" y="318" fill="#f4dfb0">FAVORITO</text><rect x="358" y="292" width="210" height="42" rx="9" fill="#201b16"></rect><text x="382" y="318" fill="#f4dfb0">AÑADIR ACEPCIÓN</text></g></g>
<g transform="translate(890 244)"><rect width="320" height="370" rx="18" fill="#111013" stroke="#d8ad58" stroke-opacity=".32"></rect><text x="28" y="48" fill="#d8ad58" font-family="monospace" font-size="15">ATLAS LOCAL</text><text x="28" y="98" fill="#fff8e8" font-family="Georgia,serif" font-size="30">12 idiomas</text><g font-family="monospace" font-size="14"><rect x="28" y="130" width="264" height="48" rx="8" fill="#1b1714"></rect><text x="48" y="160" fill="#e9d8b6">FAVORITOS · 184</text><rect x="28" y="192" width="264" height="48" rx="8" fill="#1b1714"></rect><text x="48" y="222" fill="#e9d8b6">HISTORIAL · 326</text><rect x="28" y="254" width="264" height="48" rx="8" fill="#1b1714"></rect><text x="48" y="284" fill="#e9d8b6">PAQUETES · 7</text></g><text x="28" y="342" fill="#8f8373" font-family="monospace" font-size="13">TODO GUARDADO LOCALMENTE</text></g>
</svg>