<svg xmlns="http://www.w3.org/2000/svg" viewBox="0 0 1600 900" role="img" aria-labelledby="t d"><title id="t">MNEMOSYNE 404</title><desc id="d">Palacio de memoria 3D y archivo del conocimiento</desc><defs><linearGradient id="bg" x2="1" y2="1"><stop stop-color="#11152a"/><stop offset="1" stop-color="#262345"/></linearGradient><linearGradient id="a" x2="1"><stop stop-color="#b4a1ff"/><stop offset="1" stop-color="#5de0d4"/></linearGradient></defs><rect width="1600" height="900" fill="url(#bg)"/><g opacity=".16" stroke="#c1acff"><path d="M0 180H1600M0 360H1600M0 540H1600M0 720H1600M200 0V900M400 0V900M600 0V900M800 0V900M1000 0V900M1200 0V900M1400 0V900"/></g><text x="107" y="170" font-family="Georgia,serif" font-size="92" fill="#f4eeff">MNEMOSYNE <tspan fill="#a9b8ff">404</tspan></text><text x="110" y="225" font-family="Arial,sans-serif" font-size="25" letter-spacing="6" fill="#a9a4d1">MEMORY PALACE · KNOWLEDGE ARCHIVE</text><rect x="108" y="278" width="1384" height="515" rx="26" fill="#151a31" stroke="#655f94" stroke-width="3"/><g fill="none" stroke="#968de2" stroke-width="5"><path d="M330 685V410L580 300 820 415 1060 320 1300 410V685L1060 770 820 685 580 770Z"/><path d="M580 300V770M820 415V685M1060 320V770M330 410L580 495 820 415 1060 505 1300 410"/></g><g fill="#91e6de" stroke="#d9fff7" stroke-width="4"><circle cx="580" cy="495" r="27"/><circle cx="820" cy="415" r="27"/><circle cx="1060" cy="505" r="27"/><circle cx="1300" cy="410" r="27"/></g><g fill="#c4adff"><rect x="510" y="565" width="140" height="85" rx="14"/><rect x="750" y="515" width="140" height="85" rx="14"/><rect x="992" y="590" width="140" height="85" rx="14"/></g><text x="110" y="852" font-family="Arial,sans-serif" font-size="23" fill="#b5b1d7">SALAS  ·  MEMORIAS  ·  REPASO  ·  WEBGL + 2D  ·  INDEXEDDB</text></svg>