<svg xmlns="http://www.w3.org/2000/svg" width="1280" height="720" viewBox="0 0 1280 720" role="img" aria-label="Mockup de Nocturne">
  <defs>
    <linearGradient id="bg" x1="0" y1="0" x2="1" y2="1"><stop stop-color="#080411"/><stop offset="1" stop-color="#1d0b2e"/></linearGradient>
    <radialGradient id="glow" cx="76%" cy="20%" r="70%"><stop stop-color="#a78bfa" stop-opacity=".48"/><stop offset=".45" stop-color="#a78bfa" stop-opacity=".12"/><stop offset="1" stop-color="#a78bfa" stop-opacity="0"/></radialGradient>
    <style>
      .font { font-family: Inter, Arial, Helvetica, sans-serif; }
      .meta { font-size: 19px; font-weight: 800; fill: rgba(255,255,255,.74); letter-spacing: 4px; text-transform: uppercase; }
      .title { font-size: 54px; font-weight: 950; fill: #f8fbff; letter-spacing: -2.6px; }
      .sub { font-size: 24px; fill: rgba(248,251,255,.72); }
      .label { font-size: 16px; font-weight: 800; fill: rgba(248,251,255,.74); letter-spacing: 1px; }
      .small { font-size: 14px; fill: rgba(248,251,255,.62); }
      .panel { fill: rgba(2,6,23,.54); stroke: rgba(255,255,255,.16); stroke-width: 2; }
      .panel2 { fill: rgba(255,255,255,.075); stroke: rgba(255,255,255,.16); stroke-width: 2; }
      .line { stroke: rgba(255,255,255,.12); stroke-width: 2; }
      .accent { fill: #a78bfa; }
      .accentStroke { stroke: #a78bfa; stroke-width: 4; fill: none; }
      .accent2 { fill: #60a5fa; }
    </style>
  </defs>
  <rect width="1280" height="720" rx="42" fill="url(#bg)"/>
  <circle cx="1010" cy="116" r="305" fill="url(#glow)"/>
  <rect x="28" y="28" width="1224" height="664" rx="34" fill="rgba(255,255,255,.018)" stroke="rgba(255,255,255,.18)" stroke-width="2"/>
  <g opacity=".28">
    <line x1="80" y1="110" x2="1200" y2="110" class="line"/><line x1="80" y1="210" x2="1200" y2="210" class="line"/><line x1="80" y1="310" x2="1200" y2="310" class="line"/><line x1="80" y1="410" x2="1200" y2="410" class="line"/><line x1="80" y1="510" x2="1200" y2="510" class="line"/>
  </g>
  <text x="58" y="86" class="font meta">Música / Escritura</text>
  <text x="58" y="166" class="font title">Nocturne</text>
  <text x="60" y="214" class="font sub">Música, escritura y atmósfera nocturna.</text>
  <g transform="translate(560 140)"><rect x="0" y="0" width="560" height="390" rx="28" class="panel"/><rect x="58" y="200" width="26" height="80" rx="13" fill="rgba(125,211,252,0.25)"/><rect x="114" y="150" width="26" height="130" rx="13" fill="rgba(125,211,252,0.29)"/><rect x="170" y="224" width="26" height="56" rx="13" fill="rgba(125,211,252,0.33)"/><rect x="226" y="110" width="26" height="170" rx="13" fill="rgba(125,211,252,0.37)"/><rect x="282" y="165" width="26" height="115" rx="13" fill="rgba(125,211,252,0.41000000000000003)"/><rect x="338" y="75" width="26" height="205" rx="13" fill="rgba(125,211,252,0.45)"/><rect x="394" y="190" width="26" height="90" rx="13" fill="rgba(125,211,252,0.49)"/><rect x="450" y="135" width="26" height="145" rx="13" fill="rgba(125,211,252,0.53)"/><path d="M70 235 C150 110 240 310 338 160 C408 54 470 170 520 112" class="accentStroke"/><rect x="58" y="318" width="420" height="18" rx="9" fill="rgba(255,255,255,.18)"/><rect x="58" y="318" width="190" height="18" rx="9" class="accent"/></g>
</svg>