<svg xmlns="http://www.w3.org/2000/svg" width="1280" height="720" viewBox="0 0 1280 720" role="img" aria-label="Mockup de os404">
  <defs>
    <linearGradient id="bg" x1="0" y1="0" x2="1" y2="1"><stop stop-color="#060817"></stop><stop offset="1" stop-color="#151032"></stop></linearGradient>
    <radialGradient id="glow" cx="76%" cy="20%" r="70%"><stop stop-color="#a78bfa" stop-opacity=".48"></stop><stop offset=".45" stop-color="#a78bfa" stop-opacity=".12"></stop><stop offset="1" stop-color="#a78bfa" stop-opacity="0"></stop></radialGradient>
    
  </defs>
  <rect width="1280" height="720" rx="42" fill="url(#bg)"></rect>
  <circle cx="1010" cy="116" r="305" fill="url(#glow)"></circle>
  <rect x="28" y="28" width="1224" height="664" rx="34" fill="rgba(255,255,255,.018)" stroke="rgba(255,255,255,.18)" stroke-width="2"></rect>
  <g opacity=".28">
    <line x1="80" y1="110" x2="1200" y2="110" class="line"></line><line x1="80" y1="210" x2="1200" y2="210" class="line"></line><line x1="80" y1="310" x2="1200" y2="310" class="line"></line><line x1="80" y1="410" x2="1200" y2="410" class="line"></line><line x1="80" y1="510" x2="1200" y2="510" class="line"></line>
  </g>
  <text x="58" y="86" class="font meta">Sistema / Experimentos</text>
  <text x="58" y="166" class="font title">os404</text>
  <text x="60" y="214" class="font sub">Sistema operativo web para construir y explorar.</text>
  
  <g>
    <rect x="520" y="92" width="686" height="520" rx="24" class="panel"></rect>
    <rect x="538" y="108" width="650" height="42" rx="16" fill="rgba(255,255,255,.09)"></rect>
    <circle cx="564" cy="129" r="7" fill="#fb7185"></circle><circle cx="586" cy="129" r="7" fill="#fbbf24"></circle><circle cx="608" cy="129" r="7" fill="#4ade80"></circle>
    <rect x="640" y="117" width="521" height="24" rx="12" fill="rgba(2,6,23,.50)"></rect>
  </g>
  <rect x="558" y="174" width="160" height="372" rx="18" fill="rgba(255,255,255,.08)"></rect>
  <text x="586" y="212" class="font label">OS 404</text>
  <rect x="584" y="242" width="92" height="92" rx="22" class="accent" opacity=".85"></rect><rect x="584" y="360" width="92" height="92" rx="22" fill="rgba(167,139,250,.34)"></rect><rect x="584" y="478" width="92" height="36" rx="18" fill="rgba(255,255,255,.15)"></rect>
  <rect x="748" y="174" width="410" height="170" rx="22" fill="rgba(255,255,255,.085)"></rect><rect x="748" y="366" width="190" height="180" rx="22" fill="rgba(255,255,255,.075)"></rect><rect x="968" y="366" width="190" height="180" rx="22" fill="rgba(255,255,255,.075)"></rect>
  <rect x="780" y="206" width="230" height="22" rx="11" fill="#f8fbff" opacity=".9"></rect><rect x="780" y="248" width="320" height="16" rx="8" fill="rgba(255,255,255,.25)"></rect><rect x="780" y="278" width="260" height="16" rx="8" fill="rgba(255,255,255,.17)"></rect>
  <circle cx="844" cy="456" r="42" class="accent" opacity=".8"></circle><path d="M1010 474 L1042 420 L1076 474 Z" class="accent2" opacity=".82"></path>
</svg>