<svg xmlns="http://www.w3.org/2000/svg" viewBox="0 0 1280 720" role="img" aria-labelledby="title desc">
  <title id="title">Proyecto Génesis Ω</title>
  <desc id="desc">Laboratorio de vida artificial donde una especie nace de un único huevo primordial.</desc>
  <defs>
    <radialGradient id="bg" cx="50%" cy="42%" r="78%">
      <stop offset="0" stop-color="#132d2d"></stop>
      <stop offset=".48" stop-color="#071416"></stop>
      <stop offset="1" stop-color="#020608"></stop>
    </radialGradient>
    <radialGradient id="egg" cx="38%" cy="28%" r="76%">
      <stop offset="0" stop-color="#effff1"></stop>
      <stop offset=".23" stop-color="#8ef2b5"></stop>
      <stop offset=".58" stop-color="#28b9a7"></stop>
      <stop offset="1" stop-color="#103943"></stop>
    </radialGradient>
    <linearGradient id="dna" x1="0" y1="0" x2="1" y2="1">
      <stop stop-color="#7fffb1"></stop>
      <stop offset=".5" stop-color="#35e0d0"></stop>
      <stop offset="1" stop-color="#9c7cff"></stop>
    </linearGradient>
    <linearGradient id="fade" x1="0" x2="1"><stop stop-color="#67f4bd" stop-opacity="0"></stop><stop offset=".5" stop-color="#67f4bd"></stop><stop offset="1" stop-color="#67f4bd" stop-opacity="0"></stop></linearGradient>
    <filter id="glow" x="-80%" y="-80%" width="260%" height="260%"><feGaussianBlur stdDeviation="14" result="b"></feGaussianBlur><feMerge><feMergeNode in="b"></feMergeNode><feMergeNode in="SourceGraphic"></feMergeNode></feMerge></filter>
    <pattern id="grid" width="46" height="46" patternUnits="userSpaceOnUse"><path d="M46 0H0V46" fill="none" stroke="#72f2c1" stroke-opacity=".055"></path></pattern>
    
  </defs>
  <rect width="1280" height="720" fill="url(#bg)"></rect>
  <rect width="1280" height="720" fill="url(#grid)"></rect>
  <circle cx="980" cy="205" r="270" fill="#2ee6b5" opacity=".075" filter="url(#glow)"></circle>
  <circle cx="1115" cy="615" r="240" fill="#8c6cff" opacity=".055" filter="url(#glow)"></circle>
  <rect x="28" y="28" width="1224" height="664" rx="34" fill="#030a0b" fill-opacity=".83" stroke="#254943" stroke-width="2"></rect>

  <text x="64" y="88" class="sans meta">U404 · LABORATORIO DE VIDA ARTIFICIAL</text>
  <text x="64" y="164" class="sans title">Proyecto Génesis Ω</text>
  <text x="66" y="207" class="sans sub">Una especie completa. Un único origen.</text>

  <g transform="translate(64 252)">
    <rect width="420" height="345" rx="25" fill="#071518" stroke="#2b514b" stroke-width="2"></rect>
    <text x="24" y="39" class="sans label">PROTOCOLO DE ORIGEN ÚNICO</text>
    <ellipse cx="210" cy="286" rx="118" ry="20" fill="#40e4bd" opacity=".14" filter="url(#glow)"></ellipse>
    <g filter="url(#glow)">
      <path d="M210 70c-72 0-117 80-106 160 9 65 49 100 106 100s97-35 106-100C327 150 282 70 210 70Z" fill="url(#egg)" stroke="#a2ffd0" stroke-width="3"></path>
      <path d="M165 146c19-34 48-49 84-44" fill="none" stroke="#fff" stroke-opacity=".42" stroke-width="11" stroke-linecap="round"></path>
      <path d="M185 214l22-20 18 18 27-30 22 27" fill="none" stroke="#d7fff0" stroke-opacity=".82" stroke-width="6" stroke-linecap="round" stroke-linejoin="round"></path>
    </g>
    <circle cx="210" cy="199" r="142" fill="none" stroke="#79f7c7" stroke-opacity=".28" stroke-dasharray="4 14"></circle>
    <text x="210" y="318" text-anchor="middle" class="sans label">Ω-001 · HUEVO PRIMORDIAL</text>
  </g>

  <g transform="translate(510 252)">
    <rect width="706" height="345" rx="25" fill="#071215" stroke="#294a47" stroke-width="2"></rect>
    <text x="24" y="39" class="sans label">ECOSISTEMA EVOLUTIVO</text>
    <g transform="translate(28 66) scale(1 .72)">
      <path d="M42 10c72 45 72 126 0 171s-72 126 0 171" fill="none" stroke="url(#dna)" stroke-width="5"></path>
      <path d="M126 10c-72 45-72 126 0 171s72 126 0 171" fill="none" stroke="url(#dna)" stroke-width="5"></path>
      <g stroke="#87f8cc" stroke-opacity=".7" stroke-width="2">
        <path d="M56 34h56M42 74h84M38 116h92M46 157h76M49 205h70M38 246h92M43 288h82"></path>
      </g>
    </g>
    <g transform="translate(190 68)">
      <rect width="218" height="70" rx="16" fill="#0b2020" stroke="#2b514b"></rect><text x="18" y="27" class="sans label">HERENCIA GENÉTICA</text><text x="18" y="51" class="sans small">ADN y morfología heredable</text>
      <g transform="translate(230 0)"><rect width="218" height="70" rx="16" fill="#0b2020" stroke="#2b514b"></rect><text x="18" y="27" class="sans label">MUTACIÓN</text><text x="18" y="51" class="sans small">Variación y especiación</text></g>
      <g transform="translate(0 86)"><rect width="218" height="70" rx="16" fill="#0b2020" stroke="#2b514b"></rect><text x="18" y="27" class="sans label">MEMORIA CULTURAL</text><text x="18" y="51" class="sans small">Aprendizaje entre generaciones</text></g>
      <g transform="translate(230 86)"><rect width="218" height="70" rx="16" fill="#0b2020" stroke="#2b514b"></rect><text x="18" y="27" class="sans label">SELECCIÓN NATURAL</text><text x="18" y="51" class="sans small">Clima, recursos y supervivencia</text></g>
      <g transform="translate(0 176)"><rect width="448" height="78" rx="17" fill="#07191a" stroke="url(#dna)" stroke-width="2"></rect><text x="20" y="29" class="sans label">POBLACIÓN EMERGENTE</text><text x="20" y="54" class="mono small">HUEVOS → CRÍAS → ADULTOS → DESCENDENCIA</text><circle cx="411" cy="39" r="13" fill="#65f4bd" filter="url(#glow)"></circle></g>
    </g>
  </g>

  <path d="M64 628H1216" stroke="url(#fade)" stroke-width="2"></path>
  <text x="64" y="662" class="sans meta">ECLOSIONA · APRENDE · HEREDA · MUTA · EVOLUCIONA</text>
  <g transform="translate(1135 88)"><circle r="42" fill="#071719" stroke="#78f4c5" stroke-width="2"></circle><text x="0" y="10" text-anchor="middle" class="sans" font-size="31" font-weight="900" fill="#ddfff0">Ω</text></g>
</svg>