<svg xmlns="http://www.w3.org/2000/svg" viewBox="0 0 1280 720" role="img" aria-labelledby="title desc">
  <title id="title">Recovery 404</title>
  <desc id="desc">Laboratorio local de diagnóstico, integridad y recuperación segura de archivos</desc>
  <defs>
    <linearGradient id="bg" x1="0" y1="0" x2="1" y2="1"><stop stop-color="#03080b"></stop><stop offset=".5" stop-color="#07161a"></stop><stop offset="1" stop-color="#10151c"></stop></linearGradient>
    <linearGradient id="accent" x1="0" y1="0" x2="1" y2="0"><stop stop-color="#2dd4bf"></stop><stop offset=".55" stop-color="#22d3ee"></stop><stop offset="1" stop-color="#84cc16"></stop></linearGradient>
    <filter id="glow" x="-40%" y="-40%" width="180%" height="180%"><feGaussianBlur stdDeviation="12" result="blur"></feGaussianBlur><feMerge><feMergeNode in="blur"></feMergeNode><feMergeNode in="SourceGraphic"></feMergeNode></feMerge></filter>
    
  </defs>
  <rect width="1280" height="720" fill="url(#bg)"></rect>
  <circle cx="1060" cy="112" r="250" fill="#22d3ee" opacity=".08" filter="url(#glow)"></circle><circle cx="1040" cy="630" r="245" fill="#84cc16" opacity=".055" filter="url(#glow)"></circle>
  <rect x="28" y="28" width="1224" height="664" rx="34" fill="#040b0e" stroke="#294249" stroke-width="2"></rect>
  <text x="64" y="91" class="font meta">RECOVERY · INTEGRITY · FORENSICS</text>
  <text x="64" y="166" class="font title">Recovery 404</text>
  <text x="66" y="210" class="font sub">Diagnostica. Recupera. Verifica. Todo permanece local.</text>

  <g transform="translate(64 252)">
    <rect width="362" height="356" rx="24" class="panel"></rect>
    <text x="24" y="39" class="font label">ZONA SEGURA</text>
    <rect x="22" y="60" width="318" height="146" rx="20" fill="#071b1e" stroke="url(#accent)" stroke-width="2" stroke-dasharray="9 8"></rect>
    <path d="M181 91v64m-25-25 25 25 25-25" fill="none" stroke="url(#accent)" stroke-width="8" stroke-linecap="round" stroke-linejoin="round" filter="url(#glow)"></path>
    <text x="181" y="183" text-anchor="middle" class="font label">ARCHIVOS O CARPETAS</text>
    <g transform="translate(22 225)"><rect width="151" height="48" rx="14" class="row"></rect><text x="18" y="21" class="font label">LOCAL</text><text x="18" y="38" class="font small">Sin subida</text><circle cx="126" cy="24" r="9" fill="#2dd4bf"></circle></g>
    <g transform="translate(189 225)"><rect width="151" height="48" rx="14" class="row"></rect><text x="18" y="21" class="font label">OFFLINE</text><text x="18" y="38" class="font small">PWA</text><circle cx="126" cy="24" r="9" fill="#84cc16"></circle></g>
    <rect x="22" y="291" width="318" height="42" rx="21" fill="url(#accent)"></rect><text x="181" y="318" text-anchor="middle" class="font" style="font-size:14px;font-weight:950;fill:#031012;letter-spacing:1px">ANALIZAR INTEGRIDAD</text>
  </g>

  <g transform="translate(450 252)">
    <rect width="766" height="356" rx="24" class="panel"></rect>
    <text x="24" y="39" class="font label">LABORATORIO DE RESULTADOS</text>
    <g transform="translate(22 62)">
      <rect width="226" height="72" rx="16" class="row"></rect><circle cx="28" cy="27" r="9" fill="#2dd4bf"></circle><text x="50" y="25" class="font label">FIRMA REAL</text><text x="50" y="47" class="font small">Formato y extensión</text><text x="198" y="44" text-anchor="end" class="font label">OK</text>
      <g transform="translate(238 0)"><rect width="226" height="72" rx="16" class="row"></rect><circle cx="28" cy="27" r="9" fill="#22d3ee"></circle><text x="50" y="25" class="font label">SHA-256</text><text x="50" y="47" class="font small">Integridad verificable</text><text x="198" y="44" text-anchor="end" class="font label">✓</text></g>
      <g transform="translate(476 0)"><rect width="226" height="72" rx="16" class="row"></rect><circle cx="28" cy="27" r="9" fill="#fbbf24"></circle><text x="50" y="25" class="font label">ESTRUCTURA</text><text x="50" y="47" class="font small">Chunks y entradas</text><text x="198" y="44" text-anchor="end" class="font label">02</text></g>
      <g transform="translate(0 88)"><rect width="226" height="72" rx="16" class="row"></rect><text x="18" y="26" class="font label">CORRECTOS</text><text x="18" y="56" class="font" style="font-size:27px;font-weight:950;fill:#5eead4">24</text></g>
      <g transform="translate(238 88)"><rect width="226" height="72" rx="16" class="row"></rect><text x="18" y="26" class="font label">ADVERTENCIAS</text><text x="18" y="56" class="font" style="font-size:27px;font-weight:950;fill:#fbbf24">03</text></g>
      <g transform="translate(476 88)"><rect width="226" height="72" rx="16" class="row"></rect><text x="18" y="26" class="font label">DUPLICADOS</text><text x="18" y="56" class="font" style="font-size:27px;font-weight:950;fill:#67e8f9">02</text></g>
      <rect y="178" width="702" height="96" rx="17" fill="#061014" stroke="#29434a"></rect>
      <text x="18" y="204" class="font label">MANIFIESTO Y COPIA DE SALVAMENTO</text>
      <text x="18" y="230" class="mono">SHA256SUMS · JSON · CSV · INFORME HTML</text>
      <text x="18" y="255" class="mono">El original nunca se modifica · rutas ZIP saneadas</text>
      <rect x="517" y="196" width="165" height="56" rx="16" fill="#0c2527" stroke="url(#accent)" stroke-width="2"></rect><text x="599.5" y="230" text-anchor="middle" class="font label">RECUPERAR COPIA</text>
    </g>
  </g>
  <text x="64" y="661" class="font meta">100% LOCAL · SIN SERVIDOR · SIN TELEMETRÍA</text>
</svg>