<svg xmlns="http://www.w3.org/2000/svg" width="1200" height="760" viewBox="0 0 1200 760" role="img" aria-labelledby="title desc">
  <title id="title">Santuario 404</title>
  <desc id="desc">Mockup premium de una app de calma, respiración guiada y paisajes sonoros generativos.</desc>
  <defs>
    <radialGradient id="moon" cx="72%" cy="24%" r="38%">
      <stop offset="0" stop-color="#d7f7ef" stop-opacity="0.95"></stop>
      <stop offset="0.45" stop-color="#79d8c4" stop-opacity="0.22"></stop>
      <stop offset="1" stop-color="#071015" stop-opacity="0"></stop>
    </radialGradient>
    <linearGradient id="bg" x1="0" y1="0" x2="1" y2="1">
      <stop offset="0" stop-color="#081015"></stop>
      <stop offset="0.52" stop-color="#10211f"></stop>
      <stop offset="1" stop-color="#020506"></stop>
    </linearGradient>
    <linearGradient id="card" x1="0" y1="0" x2="1" y2="1">
      <stop offset="0" stop-color="#18332f" stop-opacity="0.94"></stop>
      <stop offset="1" stop-color="#071014" stop-opacity="0.96"></stop>
    </linearGradient>
  </defs>
  <rect width="1200" height="760" rx="44" fill="url(#bg)"></rect>
  <rect width="1200" height="760" fill="url(#moon)"></rect>
  <circle cx="880" cy="170" r="86" fill="#dffbf4" opacity="0.82"></circle>
  <circle cx="910" cy="145" r="86" fill="#10211f" opacity="0.78"></circle>
  <path d="M0 555 C170 500 280 610 440 545 C610 475 730 580 920 520 C1050 480 1125 510 1200 485 L1200 760 L0 760 Z" fill="#0b1b19" opacity="0.95"></path>
  <path d="M0 620 C190 565 320 660 520 603 C710 550 820 650 1030 590 C1105 570 1155 585 1200 565 L1200 760 L0 760 Z" fill="#06100f" opacity="0.98"></path>
  <g transform="translate(90 90)">
    <rect width="520" height="392" rx="32" fill="url(#card)" stroke="#7fe0cc" stroke-opacity="0.28"></rect>
    <text x="38" y="66" fill="#dffbf4" font-family="Inter, Arial, sans-serif" font-size="38" font-weight="800">Santuario 404</text>
    <text x="40" y="106" fill="#9cc8bf" font-family="Inter, Arial, sans-serif" font-size="18">Observatorio de calma · Focus · Lectura nocturna</text>
    <g transform="translate(42 148)">
      <circle cx="96" cy="96" r="76" fill="none" stroke="#7fe0cc" stroke-width="14" opacity="0.25"></circle>
      <circle cx="96" cy="96" r="48" fill="none" stroke="#dffbf4" stroke-width="10" opacity="0.72"></circle>
      <circle cx="96" cy="96" r="18" fill="#dffbf4" opacity="0.9"></circle>
      <text x="236" y="58" fill="#eafff9" font-family="Inter, Arial, sans-serif" font-size="26" font-weight="700">Respira</text>
      <text x="236" y="95" fill="#9cc8bf" font-family="Inter, Arial, sans-serif" font-size="18">4 · 7 · 8 guiado</text>
      <rect x="236" y="134" width="190" height="12" rx="6" fill="#17322e"></rect>
      <rect x="236" y="134" width="128" height="12" rx="6" fill="#7fe0cc" opacity="0.78"></rect>
      <text x="236" y="188" fill="#cdece4" font-family="Inter, Arial, sans-serif" font-size="16">Paisaje: lluvia lenta + drones suaves</text>
    </g>
    <g transform="translate(42 326)">
      <rect width="112" height="34" rx="17" fill="#7fe0cc" opacity="0.18"></rect>
      <text x="24" y="23" fill="#dffbf4" font-family="Inter, Arial, sans-serif" font-size="14" font-weight="700">SIN LOGIN</text>
      <rect x="126" width="112" height="34" rx="17" fill="#7fe0cc" opacity="0.14"></rect>
      <text x="152" y="23" fill="#dffbf4" font-family="Inter, Arial, sans-serif" font-size="14" font-weight="700">LOCAL</text>
      <rect x="252" width="148" height="34" rx="17" fill="#7fe0cc" opacity="0.12"></rect>
      <text x="277" y="23" fill="#dffbf4" font-family="Inter, Arial, sans-serif" font-size="14" font-weight="700">SIN COOKIES</text>
    </g>
  </g>
  <g transform="translate(690 385)" opacity="0.86">
    <rect width="350" height="96" rx="24" fill="#0b1718" stroke="#7fe0cc" stroke-opacity="0.18"></rect>
    <path d="M40 58 C70 20 108 83 142 46 C178 8 214 82 250 44 C279 15 302 54 324 38" fill="none" stroke="#7fe0cc" stroke-width="6" stroke-linecap="round" opacity="0.78"></path>
    <text x="40" y="78" fill="#9cc8bf" font-family="Inter, Arial, sans-serif" font-size="15">paisaje sonoro generativo</text>
  </g>
</svg>