<svg xmlns="http://www.w3.org/2000/svg" width="1280" height="720" viewBox="0 0 1280 720" role="img" aria-label="Mockup de UI Skills Navigator Pro">
  <defs>
    <linearGradient id="bg" x1="0" y1="0" x2="1" y2="1"><stop stop-color="#06071a"></stop><stop offset="1" stop-color="#19143a"></stop></linearGradient>
    <radialGradient id="glow" cx="76%" cy="20%" r="70%"><stop stop-color="#a78bfa" stop-opacity=".48"></stop><stop offset=".45" stop-color="#a78bfa" stop-opacity=".12"></stop><stop offset="1" stop-color="#a78bfa" stop-opacity="0"></stop></radialGradient>
    
  </defs>
  <rect width="1280" height="720" rx="42" fill="url(#bg)"></rect>
  <circle cx="1010" cy="116" r="305" fill="url(#glow)"></circle>
  <rect x="28" y="28" width="1224" height="664" rx="34" fill="rgba(255,255,255,.018)" stroke="rgba(255,255,255,.18)" stroke-width="2"></rect>
  <g opacity=".28">
    <line x1="80" y1="110" x2="1200" y2="110" class="line"></line><line x1="80" y1="210" x2="1200" y2="210" class="line"></line><line x1="80" y1="310" x2="1200" y2="310" class="line"></line><line x1="80" y1="410" x2="1200" y2="410" class="line"></line><line x1="80" y1="510" x2="1200" y2="510" class="line"></line>
  </g>
  <text x="58" y="86" class="font meta">Diseño / Dev</text>
  <text x="58" y="166" class="font title">UI Skills Navigator Pro</text>
  <text x="60" y="214" class="font sub">Guía visual de patrones y diseño de interfaces.</text>
  <g transform="translate(560 130)"><rect x="0" y="0" width="570" height="420" rx="28" class="panel"></rect><rect x="42" y="46" width="210" height="140" rx="20" fill="#60a5fa" opacity=".20" stroke="#60a5fa" stroke-opacity=".50" stroke-width="2"></rect><circle cx="87" cy="91" r="20" fill="#60a5fa" opacity=".75"></circle><path d="M62 156 L112 96 L160 142 L232 74 L232 166 L62 166 Z" fill="#60a5fa" opacity=".35"></path><rect x="278" y="46" width="240" height="140" rx="20" fill="#a78bfa" opacity=".20" stroke="#a78bfa" stroke-opacity=".50" stroke-width="2"></rect><circle cx="323" cy="91" r="20" fill="#a78bfa" opacity=".75"></circle><path d="M298 156 L348 96 L396 142 L498 74 L498 166 L298 166 Z" fill="#a78bfa" opacity=".35"></path><rect x="42" y="214" width="150" height="150" rx="20" fill="#22d3ee" opacity=".20" stroke="#22d3ee" stroke-opacity=".50" stroke-width="2"></rect><circle cx="87" cy="259" r="20" fill="#22d3ee" opacity=".75"></circle><path d="M62 334 L112 274 L160 320 L172 252 L172 344 L62 344 Z" fill="#22d3ee" opacity=".35"></path><rect x="218" y="214" width="300" height="150" rx="20" fill="#fbbf24" opacity=".20" stroke="#fbbf24" stroke-opacity=".50" stroke-width="2"></rect><circle cx="263" cy="259" r="20" fill="#fbbf24" opacity=".75"></circle><path d="M238 334 L288 274 L336 320 L498 252 L498 344 L238 344 Z" fill="#fbbf24" opacity=".35"></path></g>
</svg>