<svg xmlns="http://www.w3.org/2000/svg" width="1280" height="720" viewBox="0 0 1280 720" role="img" aria-label="Mockup visual de Universal Voice Reader 404">
  <defs>
    <linearGradient id="bg" x1="0" y1="0" x2="1" y2="1">
      <stop stop-color="#020617"></stop>
      <stop offset=".55" stop-color="#071827"></stop>
      <stop offset="1" stop-color="#10263f"></stop>
    </linearGradient>
    <linearGradient id="accent" x1="0" y1="0" x2="1" y2="1">
      <stop stop-color="#e0f2fe"></stop>
      <stop offset=".52" stop-color="#38bdf8"></stop>
      <stop offset="1" stop-color="#a78bfa"></stop>
    </linearGradient>
    <radialGradient id="glow" cx="78%" cy="18%" r="72%">
      <stop stop-color="#38bdf8" stop-opacity=".42"></stop>
      <stop offset=".42" stop-color="#38bdf8" stop-opacity=".11"></stop>
      <stop offset="1" stop-color="#38bdf8" stop-opacity="0"></stop>
    </radialGradient>
    
  </defs>
  <rect width="1280" height="720" rx="42" fill="url(#bg)"></rect>
  <circle cx="1020" cy="115" r="330" fill="url(#glow)"></circle>
  <circle cx="230" cy="650" r="260" fill="#a78bfa" opacity=".10"></circle>
  <rect x="28" y="28" width="1224" height="664" rx="34" fill="#ffffff" opacity=".024" stroke="#ffffff" stroke-opacity=".18" stroke-width="2"></rect>

  <text x="58" y="88" class="font meta">Lectura / Audio · Nueva app</text>
  <text x="58" y="170" class="font title">Universal Voice Reader 404</text>
  <text x="60" y="220" class="font sub">Lee documentos con voz, OCR, resumen y preguntas.</text>
  <text x="60" y="256" class="font sub">Crea audiolibros WAV por partes desde el navegador.</text>

  <g transform="translate(60 318)">
    <rect x="0" y="0" width="148" height="44" rx="22" fill="url(#accent)"></rect>
    <text x="25" y="29" class="font label" fill="#020617">PDF · EPUB</text>
    <rect x="168" y="0" width="118" height="44" rx="22" class="soft"></rect>
    <text x="197" y="29" class="font label">OCR</text>
    <rect x="306" y="0" width="150" height="44" rx="22" class="soft"></rect>
    <text x="334" y="29" class="font label">Pregunta</text>
    <rect x="476" y="0" width="162" height="44" rx="22" class="soft"></rect>
    <text x="505" y="29" class="font label">WAV ZIP</text>
  </g>

  <rect x="60" y="552" width="260" height="56" rx="28" fill="url(#accent)"></rect>
  <text x="97" y="588" class="font label" fill="#020617">ABRIR LECTOR</text>
  <rect x="342" y="552" width="158" height="56" rx="28" fill="#ffffff" opacity=".10" stroke="#ffffff" stroke-opacity=".24"></rect>
  <text x="386" y="588" class="font label">GITHUB</text>

  <g transform="translate(565 84)">
    <rect x="0" y="0" width="640" height="552" rx="32" class="panel"></rect>
    <rect x="24" y="22" width="592" height="54" rx="18" fill="#101d31"></rect>
    <circle cx="56" cy="49" r="7" fill="#fb7185"></circle><circle cx="80" cy="49" r="7" fill="#fbbf24"></circle><circle cx="104" cy="49" r="7" fill="#4ade80"></circle>
    <rect x="136" y="36" width="330" height="24" rx="12" fill="#020617" opacity=".92"></rect>
    <text x="154" y="53" class="font tiny">voice-reader://documento-local</text>

    <rect x="34" y="104" width="168" height="402" rx="24" fill="#0d1a2a" stroke="#ffffff" stroke-opacity=".10"></rect>
    <text x="60" y="140" class="font label">Voz</text>
    <rect x="60" y="166" width="116" height="20" rx="10" fill="#38bdf8" opacity=".75"></rect>
    <rect x="60" y="210" width="102" height="14" rx="7" fill="#ffffff" opacity=".22"></rect>
    <rect x="60" y="244" width="122" height="14" rx="7" fill="#ffffff" opacity=".18"></rect>
    <rect x="60" y="302" width="104" height="104" rx="52" fill="#38bdf8" opacity=".16" stroke="#38bdf8" stroke-opacity=".34"></rect>
    <path d="M100 356 C125 330 125 378 150 352" stroke="#38bdf8" stroke-width="6" fill="none" stroke-linecap="round"></path>
    <rect x="60" y="438" width="112" height="34" rx="17" fill="#a78bfa" opacity=".42"></rect>

    <rect x="226" y="104" width="380" height="402" rx="26" fill="#0b1627" stroke="#ffffff" stroke-opacity=".12"></rect>
    <rect x="260" y="136" width="180" height="26" rx="13" fill="#f8fbff"></rect>
    <rect x="260" y="184" width="282" height="16" rx="8" fill="#ffffff" opacity=".26"></rect>
    <rect x="260" y="214" width="232" height="16" rx="8" fill="#ffffff" opacity=".18"></rect>
    <rect x="260" y="244" width="260" height="16" rx="8" fill="#ffffff" opacity=".14"></rect>
    <rect x="260" y="292" width="92" height="72" rx="18" fill="#38bdf8" opacity=".25"></rect>
    <rect x="374" y="292" width="92" height="72" rx="18" fill="#a78bfa" opacity=".25"></rect>
    <rect x="488" y="292" width="72" height="72" rx="18" fill="#7dd3fc" opacity=".18"></rect>
    <text x="282" y="333" class="font tiny">OCR</text>
    <text x="394" y="333" class="font tiny">IA</text>
    <text x="505" y="333" class="font tiny">WAV</text>
    <rect x="260" y="408" width="288" height="18" rx="9" fill="#ffffff" opacity=".14"></rect>
    <rect x="260" y="408" width="176" height="18" rx="9" fill="url(#accent)"></rect>
    <rect x="260" y="448" width="132" height="34" rx="17" fill="#38bdf8" opacity=".88"></rect>
    <rect x="410" y="448" width="132" height="34" rx="17" fill="#ffffff" opacity=".10" stroke="#ffffff" stroke-opacity=".20"></rect>
  </g>
</svg>