<svg xmlns="http://www.w3.org/2000/svg" width="1280" height="720" viewBox="0 0 1280 720" role="img" aria-labelledby="title desc">
  <title id="title">Voice Cari — Estudio local de voz sintética autorizada</title>
  <desc id="desc">Consola de voz con editor de narración, forma de onda, grabador de muestras y banco de voz con consentimiento</desc>
  <defs>
    <linearGradient id="bg" x1="0" y1="0" x2="1" y2="1">
      <stop offset="0" stop-color="#0b0a08"></stop>
      <stop offset="0.55" stop-color="#16120b"></stop>
      <stop offset="1" stop-color="#080706"></stop>
    </linearGradient>
    <radialGradient id="glow" cx="74%" cy="20%" r="72%">
      <stop offset="0" stop-color="#e8b661" stop-opacity=".22"></stop>
      <stop offset="1" stop-color="#e8b661" stop-opacity="0"></stop>
    </radialGradient>
    <linearGradient id="wave" x1="0" y1="0" x2="1" y2="0">
      <stop offset="0" stop-color="#e8b661" stop-opacity=".35"></stop>
      <stop offset="0.5" stop-color="#f7d99a"></stop>
      <stop offset="1" stop-color="#e8b661" stop-opacity=".35"></stop>
    </linearGradient>
    <filter id="shadow"><feDropShadow dx="0" dy="18" stdDeviation="18" flood-color="#000" flood-opacity=".55"></feDropShadow></filter>
  </defs>
  <rect width="1280" height="720" fill="url(#bg)"></rect>
  <rect width="1280" height="720" fill="url(#glow)"></rect>

  <g transform="translate(62 46)">
    <text x="0" y="18" fill="#e8b661" font-family="monospace" font-size="17" letter-spacing="7">AUTHORIZED VOICE STUDIO · CONSOLA LOCAL</text>
    <text x="0" y="88" fill="#fdf6e8" font-family="Georgia,serif" font-size="66">Voice Cari</text>
    <text x="0" y="126" fill="#b3a58c" font-family="monospace" font-size="20">NARRACIÓN · MUESTRAS PROPIAS · CONSENTIMIENTO</text>
  </g>

  <g transform="translate(62 205)" filter="url(#shadow)">
    <rect width="790" height="405" rx="16" fill="#100d09" stroke="#e8b661" stroke-opacity=".42"></rect>
    <rect width="790" height="38" rx="16" fill="#1d1811"></rect>
    <rect y="24" width="790" height="14" fill="#1d1811"></rect>
    <circle cx="24" cy="19" r="6" fill="#ff5d65"></circle><circle cx="45" cy="19" r="6" fill="#ffd45d"></circle><circle cx="66" cy="19" r="6" fill="#55e58b"></circle>
    <text x="96" y="25" fill="#f3e6cd" font-family="monospace" font-size="15">Voice Cari v3.3.0 — MODO SEGURO LOCAL / OFFLINE</text>

    <rect x="18" y="58" width="754" height="44" rx="7" fill="#15110c" stroke="#54452c"></rect>
    <text x="34" y="85" fill="#f0d79c" font-family="monospace" font-size="16">MÓDULO 01 · EDITOR DE NARRACIÓN   ·   sin backend · sin claves</text>

    <g transform="translate(18 120)">
      <rect width="355" height="251" rx="8" fill="#0c0a07" stroke="#4d3f28"></rect>
      <text x="20" y="32" fill="#e8b661" font-family="monospace" font-size="15">MÓDULO 02 · MOTOR DE VOZ LOCAL</text>
      <text x="20" y="72" fill="#fdf6e8" font-family="monospace" font-size="19">VOCES DEL NAVEGADOR</text>
      <text x="20" y="108" fill="#a2957e" font-family="monospace" font-size="14">Velocidad 1.00 · Tono 1.00</text>
      <text x="20" y="134" fill="#a2957e" font-family="monospace" font-size="14">Volumen 0.90</text>
      <text x="20" y="160" fill="#a2957e" font-family="monospace" font-size="14">Terror · Tráiler · Audiolibro</text>
      <rect x="20" y="192" width="210" height="38" rx="4" fill="#e8b661"></rect>
      <text x="38" y="217" fill="#100d09" font-family="monospace" font-weight="700" font-size="15">REPRODUCIR</text>
    </g>

    <g transform="translate(392 120)">
      <rect width="380" height="116" rx="8" fill="#0a0806" stroke="#4d3f28"></rect>
      <text x="18" y="28" fill="#e8b661" font-family="monospace" font-size="14">MÓDULO 03 · GRABADOR DE MUESTRA</text>
      <g transform="translate(18 62)">
        <rect width="344" height="34" rx="4" fill="#140f0a"></rect>
        <g fill="url(#wave)">
          <rect x="8" y="9" width="4" height="16" rx="2"></rect><rect x="18" y="4" width="4" height="26" rx="2"></rect>
          <rect x="28" y="12" width="4" height="10" rx="2"></rect><rect x="38" y="1" width="4" height="32" rx="2"></rect>
          <rect x="48" y="7" width="4" height="20" rx="2"></rect><rect x="58" y="13" width="4" height="8" rx="2"></rect>
          <rect x="68" y="3" width="4" height="28" rx="2"></rect><rect x="78" y="10" width="4" height="14" rx="2"></rect>
          <rect x="88" y="6" width="4" height="22" rx="2"></rect><rect x="98" y="12" width="4" height="10" rx="2"></rect>
          <rect x="108" y="2" width="4" height="30" rx="2"></rect><rect x="118" y="8" width="4" height="18" rx="2"></rect>
          <rect x="128" y="13" width="4" height="8" rx="2"></rect><rect x="138" y="5" width="4" height="24" rx="2"></rect>
          <rect x="148" y="11" width="4" height="12" rx="2"></rect><rect x="158" y="3" width="4" height="28" rx="2"></rect>
          <rect x="168" y="9" width="4" height="16" rx="2"></rect><rect x="178" y="13" width="4" height="8" rx="2"></rect>
          <rect x="188" y="6" width="4" height="22" rx="2"></rect><rect x="198" y="1" width="4" height="32" rx="2"></rect>
          <rect x="208" y="10" width="4" height="14" rx="2"></rect><rect x="218" y="12" width="4" height="10" rx="2"></rect>
          <rect x="228" y="4" width="4" height="26" rx="2"></rect><rect x="238" y="9" width="4" height="16" rx="2"></rect>
          <rect x="248" y="13" width="4" height="8" rx="2"></rect><rect x="258" y="7" width="4" height="20" rx="2"></rect>
          <rect x="268" y="2" width="4" height="30" rx="2"></rect><rect x="278" y="11" width="4" height="12" rx="2"></rect>
          <rect x="288" y="6" width="4" height="22" rx="2"></rect><rect x="298" y="13" width="4" height="8" rx="2"></rect>
          <rect x="308" y="5" width="4" height="24" rx="2"></rect><rect x="318" y="10" width="4" height="14" rx="2"></rect>
          <rect x="328" y="3" width="4" height="28" rx="2"></rect>
        </g>
      </g>
      <rect y="134" width="380" height="117" rx="8" fill="#181209" stroke="#4d3f28"></rect>
      <text x="18" y="163" fill="#e8b661" font-family="monospace" font-size="14">MÓDULO C2 · BANCO DE VOZ</text>
      <text x="18" y="194" fill="#fdf6e8" font-family="monospace" font-size="16">IndexedDB · WAV · export ZIP</text>
      <text x="18" y="223" fill="#a2957e" font-family="monospace" font-size="13">La voz nunca sale de tu máquina.</text>
    </g>
  </g>

  <g transform="translate(885 205)" filter="url(#shadow)">
    <rect width="333" height="405" rx="16" fill="#100d09" stroke="#e8b661" stroke-opacity=".35"></rect>
    <text x="24" y="42" fill="#e8b661" font-family="monospace" font-size="15" letter-spacing="3">CONSENTIMIENTO</text>
    <text x="24" y="84" fill="#fdf6e8" font-family="Georgia,serif" font-size="29">VOZ AUTORIZADA</text>
    <g font-family="monospace" font-size="14">
      <rect x="24" y="112" width="285" height="48" rx="7" fill="#1c160e"></rect><text x="42" y="142" fill="#f3e6cd">✓ VOZ PROPIA O CON PERMISO</text>
      <rect x="24" y="174" width="285" height="48" rx="7" fill="#1c160e"></rect><text x="42" y="204" fill="#f3e6cd">✓ AUDIO IDENTIFICADO</text>
      <rect x="24" y="236" width="285" height="48" rx="7" fill="#1c160e"></rect><text x="42" y="266" fill="#f3e6cd">✓ MOTOR XTTS LOCAL</text>
      <rect x="24" y="310" width="285" height="58" rx="7" fill="#e8b661"></rect><text x="42" y="345" fill="#100d09" font-weight="700">ENTRAR EN EL ESTUDIO →</text>
    </g>
  </g>

  <text x="62" y="672" fill="#928670" font-family="monospace" font-size="16">Sin backend · sin subida de audio · paquetes API-ready sin claves · PWA offline</text>
</svg>