<svg xmlns="http://www.w3.org/2000/svg" viewBox="0 0 1200 675" role="img" aria-labelledby="title desc">
  <title id="title">World Dishes 404</title>
  <desc id="desc">Ilustración de una aplicación de cocina internacional con un plato, ingredientes y un mapa del mundo.</desc>
  <defs>
    <linearGradient id="bg" x1="0" y1="0" x2="1" y2="1">
      <stop stop-color="#10172b"/>
      <stop offset="1" stop-color="#30204a"/>
    </linearGradient>
    <linearGradient id="plate" x1="0" y1="0" x2="1" y2="1">
      <stop stop-color="#fff8e8"/>
      <stop offset="1" stop-color="#e9d8b7"/>
    </linearGradient>
    <filter id="shadow" x="-30%" y="-30%" width="160%" height="160%">
      <feDropShadow dx="0" dy="18" stdDeviation="20" flood-color="#000" flood-opacity=".35"/>
    </filter>
  </defs>
  <rect width="1200" height="675" rx="34" fill="url(#bg)"/>
  <circle cx="1010" cy="105" r="190" fill="#ffb35c" opacity=".09"/>
  <circle cx="160" cy="585" r="230" fill="#58c7b8" opacity=".08"/>
  <g opacity=".18" fill="none" stroke="#b7c6ee" stroke-width="5">
    <path d="M690 105c63-39 159-34 213 2 39 26 42 63 93 77 45 12 89-6 118 18 28 24 11 65-23 86-43 26-92 17-127 46-33 28-26 75-70 90-51 17-100-25-147-12-45 12-58 67-105 63-52-5-82-77-59-124 19-39 70-48 80-91 10-44-37-92 27-155Z"/>
    <path d="M747 151c25 17 45 16 63 4m-92 99c39-10 75-5 104 22m86-72c-28 18-35 47-20 77m54 88c-26-31-54-41-84-31"/>
  </g>
  <g filter="url(#shadow)">
    <ellipse cx="420" cy="355" rx="250" ry="238" fill="#111827" opacity=".45"/>
    <circle cx="420" cy="335" r="218" fill="url(#plate)"/>
    <circle cx="420" cy="335" r="164" fill="#fffdf5" stroke="#d7c39d" stroke-width="5"/>
    <path d="M302 290c42-55 118-74 175-36 25 17 42 47 71 52 31 5 52-17 73-6 27 14 22 57 3 80-31 38-84 28-121 52-31 20-48 63-87 59-42-5-49-58-80-79-28-19-78-10-91-45-11-30 24-53 57-77Z" fill="#e4513d"/>
    <path d="M330 311c31-27 78-42 112-18 23 17 24 49 48 63 27 15 60-3 82 14 20 16 12 51-11 68-31 23-68 6-101 19-34 13-53 49-88 43-39-7-41-53-66-77-20-19-61-22-66-50-5-26 36-38 90-62Z" fill="#f3bd3f"/>
    <g fill="#3d8b57">
      <ellipse cx="347" cy="269" rx="34" ry="17" transform="rotate(-20 347 269)"/>
      <ellipse cx="514" cy="290" rx="38" ry="17" transform="rotate(28 514 290)"/>
      <ellipse cx="385" cy="420" rx="37" ry="16" transform="rotate(18 385 420)"/>
      <ellipse cx="493" cy="407" rx="30" ry="14" transform="rotate(-25 493 407)"/>
    </g>
    <g fill="#f6f0df">
      <circle cx="390" cy="326" r="17"/><circle cx="452" cy="372" r="19"/><circle cx="514" cy="345" r="15"/>
    </g>
  </g>
  <g transform="translate(690 250)">
    <rect width="390" height="235" rx="28" fill="#0e1425" opacity=".85" stroke="#ffffff" stroke-opacity=".14"/>
    <text x="34" y="58" fill="#ffbf69" font-family="system-ui, sans-serif" font-size="22" font-weight="700" letter-spacing="3">PWA GASTRONÓMICA</text>
    <text x="34" y="108" fill="#ffffff" font-family="system-ui, sans-serif" font-size="45" font-weight="800">World Dishes</text>
    <text x="34" y="151" fill="#9fe0d6" font-family="system-ui, sans-serif" font-size="45" font-weight="800">404</text>
    <text x="34" y="196" fill="#c3cbe1" font-family="system-ui, sans-serif" font-size="20">33 recetas · favoritos · modo cocina</text>
  </g>
  <g fill="#ffbf69">
    <circle cx="1038" cy="546" r="12"/><circle cx="1080" cy="568" r="7"/><circle cx="996" cy="584" r="8"/>
  </g>
</svg>
